<?xml version="1.0" encoding="utf-8" standalone="no"?>
<!DOCTYPE svg PUBLIC "-//W3C//DTD SVG 1.1//EN"
  "http://www.w3.org/Graphics/SVG/1.1/DTD/svg11.dtd">
<svg xmlns:xlink="http://www.w3.org/1999/xlink" width="460.8pt" height="345.6pt" viewBox="0 0 460.8 345.6" xmlns="http://www.w3.org/2000/svg" version="1.1">
 <metadata>
  <rdf:RDF xmlns:dc="http://purl.org/dc/elements/1.1/" xmlns:cc="http://creativecommons.org/ns#" xmlns:rdf="http://www.w3.org/1999/02/22-rdf-syntax-ns#">
   <cc:Work>
    <dc:type rdf:resource="http://purl.org/dc/dcmitype/StillImage"/>
    <dc:date>2023-11-01T00:35:11.335346</dc:date>
    <dc:format>image/svg+xml</dc:format>
    <dc:creator>
     <cc:Agent>
      <dc:title>Matplotlib v3.5.2, https://matplotlib.org/</dc:title>
     </cc:Agent>
    </dc:creator>
   </cc:Work>
  </rdf:RDF>
 </metadata>
 <defs>
  <style type="text/css">*{stroke-linejoin: round; stroke-linecap: butt}</style>
 </defs>
 <g id="figure_1">
  <g id="patch_1">
   <path d="M 0 345.6 
L 460.8 345.6 
L 460.8 0 
L 0 0 
L 0 345.6 
z
" style="fill: none"/>
  </g>
  <g id="axes_1">
   <g id="patch_2">
    <path d="M 57.6 302.4 
L 414.72 302.4 
L 414.72 41.472 
L 57.6 41.472 
z
" style="fill: #faf4ed"/>
   </g>
   <g id="matplotlib.axis_1">
    <g id="xtick_1">
     <g id="line2d_1">
      <defs>
       <path id="mad21f04ca9" d="M 0 0 
L 0 3.5 
" style="stroke: #575279; stroke-width: 0.8"/>
      </defs>
      <g>
       <use xlink:href="#mad21f04ca9" x="73.832727" y="302.4" style="fill: #575279; stroke: #575279; stroke-width: 0.8"/>
      </g>
     </g>
     <g id="text_1">
      <!-- $\mathdefault{0.0}$ -->
      <g style="fill: #575279" transform="translate(66.353906 317.70218)scale(0.12 -0.12)">
       <defs>
        <path id="CMR17-30" d="M 2688 2038 
C 2688 2430 2682 3099 2413 3613 
C 2176 4063 1798 4224 1466 4224 
C 1158 4224 768 4082 525 3620 
C 269 3137 243 2539 243 2038 
C 243 1671 250 1112 448 623 
C 723 -39 1216 -128 1466 -128 
C 1760 -128 2208 -7 2470 604 
C 2662 1048 2688 1568 2688 2038 
z
M 1466 -26 
C 1056 -26 813 328 723 816 
C 653 1196 653 1749 653 2109 
C 653 2604 653 3015 736 3407 
C 858 3954 1216 4121 1466 4121 
C 1728 4121 2067 3947 2189 3420 
C 2272 3054 2278 2623 2278 2109 
C 2278 1691 2278 1176 2202 797 
C 2067 96 1690 -26 1466 -26 
z
" transform="scale(0.015625)"/>
        <path id="CMMI12-3a" d="M 1178 307 
C 1178 492 1024 620 870 620 
C 685 620 557 467 557 313 
C 557 128 710 0 864 0 
C 1050 0 1178 153 1178 307 
z
" transform="scale(0.015625)"/>
       </defs>
       <use xlink:href="#CMR17-30" transform="scale(0.996264)"/>
       <use xlink:href="#CMMI12-3a" transform="translate(45.690477 0)scale(0.996264)"/>
       <use xlink:href="#CMR17-30" transform="translate(72.787654 0)scale(0.996264)"/>
      </g>
     </g>
    </g>
    <g id="xtick_2">
     <g id="line2d_2">
      <g>
       <use xlink:href="#mad21f04ca9" x="114.414545" y="302.4" style="fill: #575279; stroke: #575279; stroke-width: 0.8"/>
      </g>
     </g>
     <g id="text_2">
      <!-- $\mathdefault{2.5}$ -->
      <g style="fill: #575279" transform="translate(106.935725 317.70218)scale(0.12 -0.12)">
       <defs>
        <path id="CMR17-32" d="M 2669 990 
L 2554 990 
C 2490 537 2438 460 2413 422 
C 2381 371 1920 371 1830 371 
L 602 371 
C 832 620 1280 1073 1824 1596 
C 2214 1966 2669 2400 2669 3033 
C 2669 3788 2067 4224 1395 4224 
C 691 4224 262 3603 262 3027 
C 262 2777 448 2745 525 2745 
C 589 2745 781 2783 781 3007 
C 781 3206 614 3264 525 3264 
C 486 3264 448 3257 422 3244 
C 544 3788 915 4057 1306 4057 
C 1862 4057 2227 3616 2227 3033 
C 2227 2477 1901 1998 1536 1583 
L 262 147 
L 262 0 
L 2515 0 
L 2669 990 
z
" transform="scale(0.015625)"/>
        <path id="CMR17-35" d="M 730 3750 
C 794 3724 1056 3641 1325 3641 
C 1920 3641 2246 3961 2432 4140 
C 2432 4191 2432 4224 2394 4224 
C 2387 4224 2374 4224 2323 4198 
C 2099 4102 1837 4032 1517 4032 
C 1325 4032 1037 4055 723 4191 
C 653 4224 640 4224 634 4224 
C 602 4224 595 4217 595 4090 
L 595 2231 
C 595 2113 595 2080 659 2080 
C 691 2080 704 2093 736 2139 
C 941 2435 1222 2560 1542 2560 
C 1766 2560 2246 2415 2246 1293 
C 2246 1087 2246 716 2054 422 
C 1894 159 1645 25 1370 25 
C 947 25 518 319 403 812 
C 429 806 480 793 506 793 
C 589 793 749 838 749 1036 
C 749 1209 627 1280 506 1280 
C 358 1280 262 1190 262 1011 
C 262 454 704 -128 1382 -128 
C 2042 -128 2669 441 2669 1267 
C 2669 2054 2170 2662 1549 2662 
C 1222 2662 947 2540 730 2304 
L 730 3750 
z
" transform="scale(0.015625)"/>
       </defs>
       <use xlink:href="#CMR17-32" transform="scale(0.996264)"/>
       <use xlink:href="#CMMI12-3a" transform="translate(45.690477 0)scale(0.996264)"/>
       <use xlink:href="#CMR17-35" transform="translate(72.787654 0)scale(0.996264)"/>
      </g>
     </g>
    </g>
    <g id="xtick_3">
     <g id="line2d_3">
      <g>
       <use xlink:href="#mad21f04ca9" x="154.996364" y="302.4" style="fill: #575279; stroke: #575279; stroke-width: 0.8"/>
      </g>
     </g>
     <g id="text_3">
      <!-- $\mathdefault{5.0}$ -->
      <g style="fill: #575279" transform="translate(147.517543 317.70218)scale(0.12 -0.12)">
       <use xlink:href="#CMR17-35" transform="scale(0.996264)"/>
       <use xlink:href="#CMMI12-3a" transform="translate(45.690477 0)scale(0.996264)"/>
       <use xlink:href="#CMR17-30" transform="translate(72.787654 0)scale(0.996264)"/>
      </g>
     </g>
    </g>
    <g id="xtick_4">
     <g id="line2d_4">
      <g>
       <use xlink:href="#mad21f04ca9" x="195.578182" y="302.4" style="fill: #575279; stroke: #575279; stroke-width: 0.8"/>
      </g>
     </g>
     <g id="text_4">
      <!-- $\mathdefault{7.5}$ -->
      <g style="fill: #575279" transform="translate(188.099361 317.70218)scale(0.12 -0.12)">
       <defs>
        <path id="CMR17-37" d="M 2886 3955 
L 2886 4096 
L 1382 4096 
C 634 4096 621 4166 595 4288 
L 480 4288 
L 294 3104 
L 410 3104 
C 429 3226 474 3552 550 3673 
C 589 3724 1062 3724 1171 3724 
L 2579 3724 
L 1869 2670 
C 1395 1961 1069 1003 1069 166 
C 1069 89 1069 -128 1299 -128 
C 1530 -128 1530 89 1530 172 
L 1530 466 
C 1530 1514 1709 2204 2003 2644 
L 2886 3955 
z
" transform="scale(0.015625)"/>
       </defs>
       <use xlink:href="#CMR17-37" transform="scale(0.996264)"/>
       <use xlink:href="#CMMI12-3a" transform="translate(45.690477 0)scale(0.996264)"/>
       <use xlink:href="#CMR17-35" transform="translate(72.787654 0)scale(0.996264)"/>
      </g>
     </g>
    </g>
    <g id="xtick_5">
     <g id="line2d_5">
      <g>
       <use xlink:href="#mad21f04ca9" x="236.16" y="302.4" style="fill: #575279; stroke: #575279; stroke-width: 0.8"/>
      </g>
     </g>
     <g id="text_5">
      <!-- $\mathdefault{10.0}$ -->
      <g style="fill: #575279" transform="translate(225.754684 317.70218)scale(0.12 -0.12)">
       <defs>
        <path id="CMR17-31" d="M 1702 4083 
C 1702 4217 1696 4224 1606 4224 
C 1357 3927 979 3833 621 3820 
C 602 3820 570 3820 563 3808 
C 557 3795 557 3782 557 3648 
C 755 3648 1088 3686 1344 3839 
L 1344 467 
C 1344 243 1331 166 781 166 
L 589 166 
L 589 0 
C 896 6 1216 12 1523 12 
C 1830 12 2150 6 2458 0 
L 2458 166 
L 2266 166 
C 1715 166 1702 236 1702 467 
L 1702 4083 
z
" transform="scale(0.015625)"/>
       </defs>
       <use xlink:href="#CMR17-31" transform="scale(0.996264)"/>
       <use xlink:href="#CMR17-30" transform="translate(45.690477 0)scale(0.996264)"/>
       <use xlink:href="#CMMI12-3a" transform="translate(91.380954 0)scale(0.996264)"/>
       <use xlink:href="#CMR17-30" transform="translate(118.478131 0)scale(0.996264)"/>
      </g>
     </g>
    </g>
    <g id="xtick_6">
     <g id="line2d_6">
      <g>
       <use xlink:href="#mad21f04ca9" x="276.741818" y="302.4" style="fill: #575279; stroke: #575279; stroke-width: 0.8"/>
      </g>
     </g>
     <g id="text_6">
      <!-- $\mathdefault{12.5}$ -->
      <g style="fill: #575279" transform="translate(266.336502 317.70218)scale(0.12 -0.12)">
       <use xlink:href="#CMR17-31" transform="scale(0.996264)"/>
       <use xlink:href="#CMR17-32" transform="translate(45.690477 0)scale(0.996264)"/>
       <use xlink:href="#CMMI12-3a" transform="translate(91.380954 0)scale(0.996264)"/>
       <use xlink:href="#CMR17-35" transform="translate(118.478131 0)scale(0.996264)"/>
      </g>
     </g>
    </g>
    <g id="xtick_7">
     <g id="line2d_7">
      <g>
       <use xlink:href="#mad21f04ca9" x="317.323636" y="302.4" style="fill: #575279; stroke: #575279; stroke-width: 0.8"/>
      </g>
     </g>
     <g id="text_7">
      <!-- $\mathdefault{15.0}$ -->
      <g style="fill: #575279" transform="translate(306.91832 317.70218)scale(0.12 -0.12)">
       <use xlink:href="#CMR17-31" transform="scale(0.996264)"/>
       <use xlink:href="#CMR17-35" transform="translate(45.690477 0)scale(0.996264)"/>
       <use xlink:href="#CMMI12-3a" transform="translate(91.380954 0)scale(0.996264)"/>
       <use xlink:href="#CMR17-30" transform="translate(118.478131 0)scale(0.996264)"/>
      </g>
     </g>
    </g>
    <g id="xtick_8">
     <g id="line2d_8">
      <g>
       <use xlink:href="#mad21f04ca9" x="357.905455" y="302.4" style="fill: #575279; stroke: #575279; stroke-width: 0.8"/>
      </g>
     </g>
     <g id="text_8">
      <!-- $\mathdefault{17.5}$ -->
      <g style="fill: #575279" transform="translate(347.500139 317.70218)scale(0.12 -0.12)">
       <use xlink:href="#CMR17-31" transform="scale(0.996264)"/>
       <use xlink:href="#CMR17-37" transform="translate(45.690477 0)scale(0.996264)"/>
       <use xlink:href="#CMMI12-3a" transform="translate(91.380954 0)scale(0.996264)"/>
       <use xlink:href="#CMR17-35" transform="translate(118.478131 0)scale(0.996264)"/>
      </g>
     </g>
    </g>
    <g id="xtick_9">
     <g id="line2d_9">
      <g>
       <use xlink:href="#mad21f04ca9" x="398.487273" y="302.4" style="fill: #575279; stroke: #575279; stroke-width: 0.8"/>
      </g>
     </g>
     <g id="text_9">
      <!-- $\mathdefault{20.0}$ -->
      <g style="fill: #575279" transform="translate(388.081957 317.70218)scale(0.12 -0.12)">
       <use xlink:href="#CMR17-32" transform="scale(0.996264)"/>
       <use xlink:href="#CMR17-30" transform="translate(45.690477 0)scale(0.996264)"/>
       <use xlink:href="#CMMI12-3a" transform="translate(91.380954 0)scale(0.996264)"/>
       <use xlink:href="#CMR17-30" transform="translate(118.478131 0)scale(0.996264)"/>
      </g>
     </g>
    </g>
    <g id="text_10">
     <!-- Time, $t$ (s) -->
     <g style="fill: #575279" transform="translate(208.32578 332.993152)scale(0.12 -0.12)">
      <defs>
       <path id="CMR17-54" d="M 3981 4332 
L 288 4332 
L 179 2924 
L 294 2924 
C 378 3981 467 4166 1453 4166 
C 1568 4166 1754 4166 1805 4159 
C 1926 4140 1926 4064 1926 3917 
L 1926 465 
C 1926 236 1907 166 1376 166 
L 1197 166 
L 1197 0 
C 1504 6 1824 12 2138 12 
C 2451 12 2771 6 3078 0 
L 3078 166 
L 2899 166 
C 2368 166 2349 236 2349 465 
L 2349 3917 
C 2349 4057 2349 4134 2464 4159 
C 2515 4166 2701 4166 2816 4166 
C 3795 4166 3891 3981 3974 2924 
L 4090 2924 
L 3981 4332 
z
" transform="scale(0.015625)"/>
       <path id="CMR17-69" d="M 992 3961 
C 992 4102 877 4224 730 4224 
C 589 4224 467 4108 467 3961 
C 467 3820 582 3699 730 3699 
C 870 3699 992 3814 992 3961 
z
M 243 2745 
L 243 2579 
C 602 2579 653 2540 653 2231 
L 653 443 
C 653 198 627 166 218 166 
L 218 0 
C 371 12 646 12 806 12 
C 960 12 1222 12 1370 0 
L 1370 166 
C 992 166 979 205 979 436 
L 979 2816 
L 243 2745 
z
" transform="scale(0.015625)"/>
       <path id="CMR17-6d" d="M 4326 1954 
C 4326 2276 4269 2816 3507 2816 
C 3072 2816 2771 2520 2656 2173 
L 2650 2173 
C 2573 2700 2195 2816 1837 2816 
C 1331 2816 1069 2424 973 2166 
L 966 2166 
L 966 2816 
L 211 2745 
L 211 2578 
C 589 2578 646 2540 646 2231 
L 646 443 
C 646 198 621 166 211 166 
L 211 0 
C 365 12 646 12 813 12 
C 979 12 1267 12 1421 0 
L 1421 166 
C 1011 166 986 192 986 443 
L 986 1678 
C 986 2269 1344 2713 1792 2713 
C 2266 2713 2317 2289 2317 1980 
L 2317 443 
C 2317 198 2291 166 1882 166 
L 1882 0 
C 2035 12 2317 12 2483 12 
C 2650 12 2938 12 3091 0 
L 3091 166 
C 2682 166 2656 192 2656 443 
L 2656 1678 
C 2656 2269 3014 2713 3462 2713 
C 3936 2713 3987 2289 3987 1980 
L 3987 443 
C 3987 198 3962 166 3552 166 
L 3552 0 
C 3706 12 3987 12 4154 12 
C 4320 12 4608 12 4762 0 
L 4762 166 
C 4352 166 4326 192 4326 443 
L 4326 1954 
z
" transform="scale(0.015625)"/>
       <path id="CMR17-65" d="M 2438 1503 
C 2464 1529 2464 1542 2464 1606 
C 2464 2251 2118 2816 1389 2816 
C 710 2816 173 2175 173 1394 
C 173 554 781 -64 1459 -64 
C 2176 -64 2458 619 2458 755 
C 2458 800 2419 800 2406 800 
C 2362 800 2355 787 2330 709 
C 2189 270 1837 51 1504 51 
C 1229 51 954 206 781 490 
C 582 819 582 1200 582 1503 
L 2438 1503 
z
M 589 1600 
C 634 2511 1126 2713 1382 2713 
C 1818 2713 2112 2308 2118 1600 
L 589 1600 
z
" transform="scale(0.015625)"/>
       <path id="CMR17-2c" d="M 1011 102 
C 1024 44 1024 25 1024 -76 
C 1024 -451 896 -795 627 -1108 
C 595 -1140 595 -1152 595 -1165 
C 595 -1191 621 -1216 646 -1216 
C 685 -1216 1126 -776 1126 -82 
C 1126 128 1101 524 800 524 
C 659 524 538 428 538 262 
C 538 96 659 0 800 0 
C 877 0 960 32 1011 102 
z
" transform="scale(0.015625)"/>
       <path id="CMMI12-74" d="M 1286 2566 
L 1875 2566 
C 1997 2566 2061 2566 2061 2681 
C 2061 2752 2022 2752 1894 2752 
L 1331 2752 
L 1568 3664 
C 1594 3752 1594 3764 1594 3808 
C 1594 3910 1510 3968 1427 3968 
C 1376 3968 1229 3948 1178 3746 
L 928 2752 
L 326 2752 
C 198 2752 141 2752 141 2630 
C 141 2566 186 2566 307 2566 
L 877 2566 
L 454 881 
C 403 657 384 593 384 510 
C 384 210 595 -64 954 -64 
C 1600 -64 1946 868 1946 913 
C 1946 951 1920 970 1882 970 
C 1869 970 1843 970 1830 944 
C 1824 938 1818 932 1773 830 
C 1638 510 1344 64 973 64 
C 781 64 768 223 768 364 
C 768 370 768 491 787 568 
L 1286 2566 
z
" transform="scale(0.015625)"/>
       <path id="CMR17-28" d="M 1958 -1562 
C 1958 -1556 1958 -1543 1939 -1524 
C 1645 -1223 858 -403 858 1596 
C 858 3595 1632 4408 1946 4729 
C 1946 4735 1958 4748 1958 4767 
C 1958 4787 1939 4800 1914 4800 
C 1843 4800 1299 4325 986 3620 
C 666 2909 576 2218 576 1603 
C 576 1141 621 360 1005 -467 
C 1312 -1133 1837 -1600 1914 -1600 
C 1946 -1600 1958 -1588 1958 -1562 
z
" transform="scale(0.015625)"/>
       <path id="CMR17-73" d="M 1978 2688 
C 1978 2803 1971 2809 1933 2809 
C 1907 2809 1901 2803 1824 2707 
C 1805 2681 1747 2617 1728 2592 
C 1523 2809 1235 2816 1126 2816 
C 416 2816 160 2444 160 2073 
C 160 1497 813 1363 998 1324 
C 1402 1241 1542 1216 1677 1100 
C 1760 1024 1901 883 1901 652 
C 1901 384 1747 38 1158 38 
C 602 38 403 460 288 1024 
C 269 1113 269 1120 218 1120 
C 166 1120 160 1113 160 985 
L 160 64 
C 160 -52 166 -58 205 -58 
C 237 -58 243 -52 275 0 
C 314 57 410 211 448 275 
C 576 102 800 -64 1158 -64 
C 1792 -64 2131 281 2131 780 
C 2131 1107 1958 1280 1875 1356 
C 1683 1555 1459 1600 1190 1651 
C 838 1728 390 1817 390 2208 
C 390 2374 480 2726 1126 2726 
C 1811 2726 1850 2086 1862 1881 
C 1869 1849 1901 1843 1920 1843 
C 1978 1843 1978 1862 1978 1971 
L 1978 2688 
z
" transform="scale(0.015625)"/>
       <path id="CMR17-29" d="M 1683 1596 
C 1683 2057 1638 2839 1254 3665 
C 947 4332 422 4800 346 4800 
C 326 4800 301 4793 301 4761 
C 301 4748 307 4742 314 4729 
C 621 4408 1402 3595 1402 1603 
C 1402 -396 627 -1210 314 -1530 
C 307 -1543 301 -1549 301 -1562 
C 301 -1594 326 -1600 346 -1600 
C 416 -1600 960 -1127 1274 -422 
C 1594 289 1683 981 1683 1596 
z
" transform="scale(0.015625)"/>
      </defs>
      <use xlink:href="#CMR17-54" transform="scale(0.996264)"/>
      <use xlink:href="#CMR17-69" transform="translate(66.509881 0)scale(0.996264)"/>
      <use xlink:href="#CMR17-6d" transform="translate(91.380939 0)scale(0.996264)"/>
      <use xlink:href="#CMR17-65" transform="translate(168.300529 0)scale(0.996264)"/>
      <use xlink:href="#CMR17-2c" transform="translate(208.786189 0)scale(0.996264)"/>
      <use xlink:href="#CMMI12-74" transform="translate(263.733214 0)scale(0.996264)"/>
      <use xlink:href="#CMR17-28" transform="translate(329.035511 0)scale(0.996264)"/>
      <use xlink:href="#CMR17-73" transform="translate(364.316279 0)scale(0.996264)"/>
      <use xlink:href="#CMR17-29" transform="translate(400.117616 0)scale(0.996264)"/>
     </g>
    </g>
   </g>
   <g id="matplotlib.axis_2">
    <g id="ytick_1">
     <g id="line2d_10">
      <defs>
       <path id="m81c16a23b6" d="M 0 0 
L -3.5 0 
" style="stroke: #575279; stroke-width: 0.8"/>
      </defs>
      <g>
       <use xlink:href="#m81c16a23b6" x="57.6" y="270.772342" style="fill: #575279; stroke: #575279; stroke-width: 0.8"/>
      </g>
     </g>
     <g id="text_11">
      <!-- $\mathdefault{−1.0}$ -->
      <g style="fill: #575279" transform="translate(26.343869 274.923432)scale(0.12 -0.12)">
       <defs>
        <path id="CMSY10-0" d="M 4218 1472 
C 4326 1472 4442 1472 4442 1600 
C 4442 1728 4326 1728 4218 1728 
L 755 1728 
C 646 1728 531 1728 531 1600 
C 531 1472 646 1472 755 1472 
L 4218 1472 
z
" transform="scale(0.015625)"/>
       </defs>
       <use xlink:href="#CMSY10-0" transform="scale(0.996264)"/>
       <use xlink:href="#CMR17-31" transform="translate(77.487468 0)scale(0.996264)"/>
       <use xlink:href="#CMMI12-3a" transform="translate(123.177945 0)scale(0.996264)"/>
       <use xlink:href="#CMR17-30" transform="translate(150.275122 0)scale(0.996264)"/>
      </g>
     </g>
    </g>
    <g id="ytick_2">
     <g id="line2d_11">
      <g>
       <use xlink:href="#m81c16a23b6" x="57.6" y="221.354062" style="fill: #575279; stroke: #575279; stroke-width: 0.8"/>
      </g>
     </g>
     <g id="text_12">
      <!-- $\mathdefault{−0.5}$ -->
      <g style="fill: #575279" transform="translate(26.343869 225.505152)scale(0.12 -0.12)">
       <use xlink:href="#CMSY10-0" transform="scale(0.996264)"/>
       <use xlink:href="#CMR17-30" transform="translate(77.487468 0)scale(0.996264)"/>
       <use xlink:href="#CMMI12-3a" transform="translate(123.177945 0)scale(0.996264)"/>
       <use xlink:href="#CMR17-35" transform="translate(150.275122 0)scale(0.996264)"/>
      </g>
     </g>
    </g>
    <g id="ytick_3">
     <g id="line2d_12">
      <g>
       <use xlink:href="#m81c16a23b6" x="57.6" y="171.935782" style="fill: #575279; stroke: #575279; stroke-width: 0.8"/>
      </g>
     </g>
     <g id="text_13">
      <!-- $\mathdefault{0.0}$ -->
      <g style="fill: #575279" transform="translate(35.642358 176.086872)scale(0.12 -0.12)">
       <use xlink:href="#CMR17-30" transform="scale(0.996264)"/>
       <use xlink:href="#CMMI12-3a" transform="translate(45.690477 0)scale(0.996264)"/>
       <use xlink:href="#CMR17-30" transform="translate(72.787654 0)scale(0.996264)"/>
      </g>
     </g>
    </g>
    <g id="ytick_4">
     <g id="line2d_13">
      <g>
       <use xlink:href="#m81c16a23b6" x="57.6" y="122.517502" style="fill: #575279; stroke: #575279; stroke-width: 0.8"/>
      </g>
     </g>
     <g id="text_14">
      <!-- $\mathdefault{0.5}$ -->
      <g style="fill: #575279" transform="translate(35.642358 126.668591)scale(0.12 -0.12)">
       <use xlink:href="#CMR17-30" transform="scale(0.996264)"/>
       <use xlink:href="#CMMI12-3a" transform="translate(45.690477 0)scale(0.996264)"/>
       <use xlink:href="#CMR17-35" transform="translate(72.787654 0)scale(0.996264)"/>
      </g>
     </g>
    </g>
    <g id="ytick_5">
     <g id="line2d_14">
      <g>
       <use xlink:href="#m81c16a23b6" x="57.6" y="73.099221" style="fill: #575279; stroke: #575279; stroke-width: 0.8"/>
      </g>
     </g>
     <g id="text_15">
      <!-- $\mathdefault{1.0}$ -->
      <g style="fill: #575279" transform="translate(35.642358 77.250311)scale(0.12 -0.12)">
       <use xlink:href="#CMR17-31" transform="scale(0.996264)"/>
       <use xlink:href="#CMMI12-3a" transform="translate(45.690477 0)scale(0.996264)"/>
       <use xlink:href="#CMR17-30" transform="translate(72.787654 0)scale(0.996264)"/>
      </g>
     </g>
    </g>
    <g id="text_16">
     <!-- Displacement, $s$ (cm) -->
     <g style="fill: #575279" transform="translate(19.355077 226.507191)rotate(-90)scale(0.12 -0.12)">
      <defs>
       <path id="CMR17-44" d="M 333 4352 
L 333 4185 
C 774 4185 845 4185 845 3898 
L 845 453 
C 845 166 774 166 333 166 
L 333 0 
L 2368 0 
C 3398 0 4224 943 4224 2140 
C 4224 3344 3411 4352 2368 4352 
L 333 4352 
z
M 1523 166 
C 1267 166 1254 198 1254 414 
L 1254 3936 
C 1254 4153 1267 4185 1523 4185 
L 2240 4185 
C 2771 4185 3750 3873 3750 2140 
C 3750 1242 3488 879 3366 707 
C 3213 510 2848 166 2240 166 
L 1523 166 
z
" transform="scale(0.015625)"/>
       <path id="CMR17-70" d="M 1408 -1114 
C 998 -1114 973 -1088 973 -834 
L 973 380 
C 1158 109 1427 -64 1766 -64 
C 2406 -64 3053 503 3053 1382 
C 3053 2196 2496 2816 1837 2816 
C 1453 2816 1139 2603 960 2345 
L 960 2816 
L 198 2745 
L 198 2577 
C 576 2577 634 2539 634 2228 
L 634 -834 
C 634 -1081 608 -1114 198 -1114 
L 198 -1280 
C 352 -1268 634 -1268 800 -1268 
C 966 -1268 1254 -1268 1408 -1280 
L 1408 -1114 
z
M 973 2015 
C 973 2106 973 2241 1222 2481 
C 1254 2506 1472 2700 1792 2700 
C 2259 2700 2643 2112 2643 1376 
C 2643 639 2234 38 1728 38 
C 1498 38 1248 148 1056 451 
C 973 594 973 632 973 736 
L 973 2015 
z
" transform="scale(0.015625)"/>
       <path id="CMR17-6c" d="M 979 4416 
L 218 4345 
L 218 4179 
C 595 4179 653 4141 653 3835 
L 653 439 
C 653 198 627 166 218 166 
L 218 0 
C 371 12 653 12 813 12 
C 979 12 1261 12 1414 0 
L 1414 166 
C 1005 166 979 191 979 439 
L 979 4416 
z
" transform="scale(0.015625)"/>
       <path id="CMR17-61" d="M 2304 1656 
C 2304 2048 2304 2275 2035 2534 
C 1798 2751 1523 2816 1306 2816 
C 800 2816 435 2408 435 1977 
C 435 1740 627 1728 666 1728 
C 749 1728 896 1779 896 1958 
C 896 2118 774 2188 666 2188 
C 640 2188 608 2182 589 2176 
C 723 2594 1069 2713 1293 2713 
C 1613 2713 1965 2421 1965 1875 
L 1965 1632 
C 1587 1619 1133 1568 774 1373 
C 371 1147 256 822 256 576 
C 256 77 832 -64 1171 -64 
C 1523 -64 1850 135 1990 505 
C 2003 219 2182 -39 2464 -39 
C 2598 -39 2938 51 2938 563 
L 2938 926 
L 2822 926 
L 2822 557 
C 2822 161 2650 109 2566 109 
C 2304 109 2304 446 2304 732 
L 2304 1656 
z
M 1965 887 
C 1965 323 1568 38 1216 38 
C 896 38 646 278 646 576 
C 646 771 730 1114 1101 1322 
C 1408 1497 1760 1523 1965 1536 
L 1965 887 
z
" transform="scale(0.015625)"/>
       <path id="CMR17-63" d="M 2234 2240 
C 2112 2240 1933 2240 1933 2015 
C 1933 1836 2080 1785 2163 1785 
C 2208 1785 2394 1804 2394 2028 
C 2394 2476 1958 2816 1466 2816 
C 787 2816 211 2201 211 1379 
C 211 521 813 -64 1466 -64 
C 2259 -64 2458 676 2458 747 
C 2458 773 2451 792 2406 792 
C 2362 792 2355 786 2330 702 
C 2163 180 1798 51 1523 51 
C 1114 51 621 431 621 1385 
C 621 2358 1094 2700 1472 2700 
C 1722 2700 2093 2582 2234 2240 
z
" transform="scale(0.015625)"/>
       <path id="CMR17-6e" d="M 2656 1954 
C 2656 2282 2592 2816 1837 2816 
C 1331 2816 1069 2424 973 2166 
L 966 2166 
L 966 2816 
L 211 2745 
L 211 2578 
C 589 2578 646 2540 646 2231 
L 646 443 
C 646 198 621 166 211 166 
L 211 0 
C 365 12 646 12 813 12 
C 979 12 1267 12 1421 0 
L 1421 166 
C 1011 166 986 192 986 443 
L 986 1678 
C 986 2269 1344 2713 1792 2713 
C 2266 2713 2317 2289 2317 1980 
L 2317 443 
C 2317 198 2291 166 1882 166 
L 1882 0 
C 2035 12 2317 12 2483 12 
C 2650 12 2938 12 3091 0 
L 3091 166 
C 2682 166 2656 192 2656 443 
L 2656 1954 
z
" transform="scale(0.015625)"/>
       <path id="CMR17-74" d="M 966 2585 
L 1862 2585 
L 1862 2752 
L 966 2752 
L 966 3968 
L 851 3968 
C 838 3292 614 2700 70 2687 
L 70 2585 
L 627 2585 
L 627 778 
C 627 655 627 -64 1370 -64 
C 1747 -64 1965 308 1965 784 
L 1965 1151 
L 1850 1151 
L 1850 790 
C 1850 347 1677 51 1408 51 
C 1222 51 966 179 966 765 
L 966 2585 
z
" transform="scale(0.015625)"/>
       <path id="CMMI12-73" d="M 1459 1290 
C 1568 1271 1741 1233 1779 1227 
C 1862 1201 2150 1099 2150 793 
C 2150 595 1971 64 1229 64 
C 1094 64 614 83 486 447 
C 742 414 870 614 870 755 
C 870 889 781 960 653 960 
C 512 960 326 851 326 563 
C 326 176 710 -64 1222 -64 
C 2195 -64 2483 665 2483 998 
C 2483 1093 2483 1271 2278 1475 
C 2118 1627 1965 1659 1619 1729 
C 1446 1767 1171 1824 1171 2111 
C 1171 2239 1286 2687 1894 2687 
C 2163 2687 2426 2589 2490 2368 
C 2208 2368 2195 2124 2195 2118 
C 2195 1983 2317 1945 2374 1945 
C 2464 1945 2643 2015 2643 2284 
C 2643 2546 2400 2816 1901 2816 
C 1062 2816 838 2169 838 1907 
C 838 1424 1312 1322 1459 1290 
z
" transform="scale(0.015625)"/>
      </defs>
      <use xlink:href="#CMR17-44" transform="scale(0.996264)"/>
      <use xlink:href="#CMR17-69" transform="translate(70.393556 0)scale(0.996264)"/>
      <use xlink:href="#CMR17-73" transform="translate(95.264614 0)scale(0.996264)"/>
      <use xlink:href="#CMR17-70" transform="translate(131.065952 0)scale(0.996264)"/>
      <use xlink:href="#CMR17-6c" transform="translate(181.961322 0)scale(0.996264)"/>
      <use xlink:href="#CMR17-61" transform="translate(206.83238 0)scale(0.996264)"/>
      <use xlink:href="#CMR17-63" transform="translate(252.522857 0)scale(0.996264)"/>
      <use xlink:href="#CMR17-65" transform="translate(293.008518 0)scale(0.996264)"/>
      <use xlink:href="#CMR17-6d" transform="translate(333.494178 0)scale(0.996264)"/>
      <use xlink:href="#CMR17-65" transform="translate(410.413768 0)scale(0.996264)"/>
      <use xlink:href="#CMR17-6e" transform="translate(450.899429 0)scale(0.996264)"/>
      <use xlink:href="#CMR17-74" transform="translate(499.192345 0)scale(0.996264)"/>
      <use xlink:href="#CMR17-2c" transform="translate(534.473112 0)scale(0.996264)"/>
      <use xlink:href="#CMMI12-73" transform="translate(589.420137 0)scale(0.996264)"/>
      <use xlink:href="#CMR17-28" transform="translate(665.446151 0)scale(0.996264)"/>
      <use xlink:href="#CMR17-63" transform="translate(700.726919 0)scale(0.996264)"/>
      <use xlink:href="#CMR17-6d" transform="translate(741.212579 0)scale(0.996264)"/>
      <use xlink:href="#CMR17-29" transform="translate(818.132169 0)scale(0.996264)"/>
     </g>
    </g>
   </g>
   <g id="line2d_15">
    <path d="M 73.832727 67.851092 
L 76.00433 71.884478 
L 78.175932 76.36535 
L 80.347534 81.273665 
L 82.519137 86.587472 
L 85.77654 95.266019 
L 89.033943 104.715754 
L 92.291347 114.841626 
L 96.634552 129.217664 
L 102.063557 148.229744 
L 110.749967 179.796704 
L 117.264773 203.227679 
L 121.607978 218.207017 
L 125.951183 232.359478 
L 129.208586 242.278361 
L 132.46599 251.489699 
L 135.723393 259.900839 
L 137.894995 265.021574 
L 140.066598 269.725979 
L 142.2382 273.993011 
L 144.409802 277.803586 
L 146.581405 281.140662 
L 148.753007 283.989313 
L 150.924609 286.336799 
L 153.096212 288.172619 
L 155.267814 289.488564 
L 156.353615 289.949653 
L 157.439416 290.278748 
L 158.525217 290.475483 
L 159.611019 290.539636 
L 160.69682 290.471137 
L 161.782621 290.270062 
L 162.868422 289.936636 
L 163.954223 289.471232 
L 165.040024 288.87437 
L 167.211627 287.289089 
L 169.383229 285.187885 
L 171.554831 282.580154 
L 173.726434 279.47756 
L 175.898036 275.893979 
L 178.069638 271.84544 
L 180.24124 267.35005 
L 182.412843 262.427913 
L 184.584445 257.101046 
L 187.841849 248.40446 
L 191.099252 238.938709 
L 194.356656 228.799006 
L 198.69986 214.408159 
L 204.128866 195.383767 
L 212.815275 163.812151 
L 219.330082 140.389984 
L 223.673287 125.422219 
L 228.016491 111.28566 
L 231.273895 101.381378 
L 234.531298 92.186771 
L 237.788702 83.794324 
L 239.960304 78.68705 
L 242.131906 73.996835 
L 244.303509 69.744657 
L 246.475111 65.949535 
L 248.646713 62.628443 
L 250.818316 59.796233 
L 252.989918 57.465574 
L 255.16152 55.646888 
L 257.333123 54.348312 
L 258.418924 53.895971 
L 259.504725 53.575652 
L 260.590526 53.387713 
L 261.676327 53.332364 
L 262.762128 53.409667 
L 263.847929 53.619536 
L 264.933731 53.961736 
L 266.019532 54.435884 
L 267.105333 55.04145 
L 269.276935 56.643981 
L 271.448538 58.762161 
L 273.62014 61.386515 
L 275.791742 64.505308 
L 277.963344 68.104589 
L 280.134947 72.168261 
L 282.306549 76.678149 
L 284.478151 81.614081 
L 286.649754 86.953983 
L 289.907157 95.668564 
L 293.164561 105.150284 
L 296.421964 115.30377 
L 300.765169 129.709354 
L 306.194175 148.745964 
L 315.966385 184.27341 
L 322.481192 207.53828 
L 326.824396 222.310069 
L 331.167601 236.181659 
L 334.425005 245.844744 
L 337.682408 254.764411 
L 340.939811 262.850941 
L 343.111414 267.73857 
L 345.283016 272.197716 
L 347.454618 276.208435 
L 349.626221 279.752789 
L 351.797823 282.814925 
L 353.969425 285.381148 
L 356.141028 287.43998 
L 358.31263 288.982214 
L 359.398431 289.557359 
L 360.484232 290.000951 
L 361.570033 290.312492 
L 362.655835 290.491635 
L 363.741636 290.538179 
L 364.827437 290.452071 
L 365.913238 290.23341 
L 366.999039 289.882437 
L 368.08484 289.399548 
L 369.170642 288.78528 
L 371.342244 287.165508 
L 373.513846 285.030363 
L 375.685448 282.389398 
L 377.857051 279.254422 
L 380.028653 275.639458 
L 382.200255 271.560673 
L 384.371858 267.036311 
L 386.54346 262.086606 
L 389.800863 253.913455 
L 393.058267 244.915726 
L 396.31567 235.183924 
L 398.487273 228.336303 
L 398.487273 228.336303 
" clip-path="url(#p5751ca2aed)" style="fill: none; stroke: #b4637a; stroke-width: 1.5; stroke-linecap: square"/>
   </g>
   <g id="line2d_16">
    <path d="M 73.832727 171.935782 
L 82.519137 145.805607 
L 86.862341 133.325261 
L 91.205546 121.534895 
L 94.462949 113.272236 
L 97.720353 105.599648 
L 100.977756 98.594306 
L 103.149358 94.329866 
L 105.320961 90.412521 
L 107.492563 86.859795 
L 109.664165 83.687575 
L 111.835768 80.91005 
L 114.00737 78.539643 
L 116.178972 76.586955 
L 118.350575 75.06072 
L 120.522177 73.967764 
L 122.693779 73.312975 
L 124.865382 73.099282 
L 127.036984 73.327641 
L 129.208586 73.99703 
L 131.380189 75.104456 
L 133.551791 76.644965 
L 135.723393 78.611668 
L 137.894995 80.995767 
L 140.066598 83.786601 
L 142.2382 86.971687 
L 144.409802 90.53678 
L 146.581405 94.465934 
L 148.753007 98.741576 
L 152.01041 105.76247 
L 155.267814 113.448973 
L 158.525217 121.723768 
L 162.868422 133.527344 
L 167.211627 146.017286 
L 173.726434 165.548517 
L 184.584445 198.277508 
L 188.92765 210.748194 
L 193.270854 222.525294 
L 196.528258 230.775775 
L 199.785661 238.43441 
L 203.043065 245.424165 
L 205.214667 249.677384 
L 207.386269 253.582899 
L 209.557872 257.123242 
L 211.729474 260.28258 
L 213.901076 263.046782 
L 216.072679 265.403485 
L 218.244281 267.342149 
L 220.415883 268.854103 
L 222.587486 269.932584 
L 224.759088 270.572769 
L 226.93069 270.771794 
L 229.102292 270.52877 
L 231.273895 269.844784 
L 233.445497 268.722894 
L 235.617099 267.168118 
L 237.788702 265.187411 
L 239.960304 262.78963 
L 242.131906 259.985501 
L 244.303509 256.787565 
L 246.475111 253.210124 
L 248.646713 249.269179 
L 250.818316 244.982357 
L 254.075719 237.945945 
L 257.333123 230.245566 
L 260.590526 221.958675 
L 264.933731 210.141948 
L 269.276935 197.64247 
L 275.791742 178.104066 
L 286.649754 145.382635 
L 290.992958 132.921669 
L 295.336163 121.157894 
L 298.593566 112.919631 
L 301.85097 105.274986 
L 305.108373 98.300852 
L 307.279976 94.058877 
L 309.451578 90.165211 
L 311.62318 86.637268 
L 313.794783 83.490827 
L 315.966385 80.739961 
L 318.137987 78.396974 
L 320.30959 76.472344 
L 322.481192 74.97468 
L 324.652794 73.910679 
L 326.824396 73.285101 
L 328.995999 73.100744 
L 331.167601 73.358431 
L 333.339203 74.057012 
L 335.510806 75.19336 
L 337.682408 76.762395 
L 339.85401 78.757097 
L 342.025613 81.168547 
L 344.197215 83.985957 
L 346.368817 87.196729 
L 348.54042 90.7865 
L 350.712022 94.739216 
L 352.883624 99.037197 
L 356.141028 106.089092 
L 359.398431 113.80331 
L 362.655835 122.102256 
L 366.999039 133.932075 
L 371.342244 146.441028 
L 377.857051 165.986507 
L 388.715062 198.700219 
L 393.058267 211.151403 
L 397.401472 222.901795 
L 398.487273 225.704957 
L 398.487273 225.704957 
" clip-path="url(#p5751ca2aed)" style="fill: none; stroke: #ea9d34; stroke-width: 1.5; stroke-linecap: square"/>
   </g>
   <g id="line2d_17">
    <path d="M 73.832727 182.103034 
L 78.175932 174.377483 
L 84.690739 162.639648 
L 87.948142 157.213994 
L 90.119745 153.912574 
L 92.291347 150.933233 
L 94.462949 148.329212 
L 96.634552 146.147046 
L 98.806154 144.42573 
L 100.977756 143.196024 
L 102.063557 142.772747 
L 103.149358 142.479904 
L 104.23516 142.318804 
L 105.320961 142.290167 
L 106.406762 142.394122 
L 107.492563 142.630204 
L 108.578364 142.997356 
L 109.664165 143.493937 
L 111.835768 144.865933 
L 114.00737 146.721672 
L 116.178972 149.027993 
L 118.350575 151.743681 
L 120.522177 154.820207 
L 123.77958 159.989776 
L 127.036984 165.638776 
L 137.894995 184.963485 
L 141.152399 190.011215 
L 143.324001 192.984745 
L 145.495604 195.582125 
L 147.667206 197.75694 
L 149.838808 199.470325 
L 152.01041 200.691662 
L 153.096212 201.110637 
L 154.182013 201.399125 
L 155.267814 201.555838 
L 156.353615 201.580072 
L 157.439416 201.471722 
L 158.525217 201.231269 
L 159.611019 200.859792 
L 160.69682 200.35895 
L 162.868422 198.978702 
L 165.040024 197.115191 
L 167.211627 194.801719 
L 169.383229 192.079628 
L 171.554831 188.997562 
L 174.812235 183.82151 
L 178.069638 178.168447 
L 188.92765 158.848978 
L 192.185053 153.808212 
L 194.356656 150.840508 
L 196.528258 148.249781 
L 198.69986 146.082329 
L 200.871462 144.376883 
L 203.043065 143.16392 
L 204.128866 142.749249 
L 205.214667 142.465117 
L 206.300468 142.312794 
L 207.386269 142.292961 
L 208.472071 142.405707 
L 209.557872 142.650529 
L 210.643673 143.02633 
L 211.729474 143.53143 
L 213.901076 144.919923 
L 216.072679 146.791196 
L 218.244281 149.111808 
L 220.415883 151.840289 
L 222.587486 154.927881 
L 225.844889 160.11039 
L 229.102292 165.767488 
L 239.960304 185.081622 
L 243.217708 190.115399 
L 245.38931 193.077262 
L 247.560912 195.661323 
L 249.732514 197.821402 
L 251.904117 199.518901 
L 254.075719 200.723483 
L 255.16152 201.133847 
L 256.247321 201.413622 
L 257.333123 201.561556 
L 258.418924 201.576986 
L 259.504725 201.459845 
L 260.590526 201.210656 
L 261.676327 200.830533 
L 262.762128 200.321177 
L 264.933731 198.924445 
L 267.105333 197.04542 
L 269.276935 194.71768 
L 271.448538 191.982822 
L 273.62014 188.88972 
L 276.877543 183.70078 
L 280.134947 178.039674 
L 290.992958 158.730971 
L 294.250362 153.704207 
L 296.421964 150.748199 
L 298.593566 148.170818 
L 300.765169 146.018121 
L 302.936771 144.328579 
L 305.108373 143.132383 
L 306.194175 142.726327 
L 307.279976 142.450911 
L 308.365777 142.307368 
L 309.451578 142.296339 
L 310.537379 142.417875 
L 311.62318 142.671431 
L 312.708981 143.055873 
L 313.794783 143.569483 
L 315.966385 144.974447 
L 318.137987 146.861215 
L 320.30959 149.196072 
L 322.481192 151.937292 
L 324.652794 155.03589 
L 327.910198 160.231236 
L 331.167601 165.896321 
L 340.939811 183.397319 
L 344.197215 188.618097 
L 346.368817 191.738578 
L 348.54042 194.505179 
L 350.712022 196.86846 
L 352.883624 198.786188 
L 355.055227 200.224094 
L 356.141028 200.754735 
L 357.226829 201.156482 
L 358.31263 201.427538 
L 359.398431 201.56669 
L 360.484232 201.573316 
L 361.570033 201.447387 
L 362.655835 201.189465 
L 363.741636 200.800705 
L 364.827437 200.282844 
L 366.999039 198.869656 
L 369.170642 196.975153 
L 371.342244 194.633191 
L 373.513846 191.885622 
L 375.685448 188.781544 
L 378.942852 183.579818 
L 382.200255 177.91078 
L 391.972466 160.413563 
L 395.229869 155.199088 
L 397.401472 152.084041 
L 398.487273 150.656307 
L 398.487273 150.656307 
" clip-path="url(#p5751ca2aed)" style="fill: none; stroke: #56949f; stroke-width: 1.5; stroke-linecap: square"/>
   </g>
   <g id="patch_3">
    <path d="M 57.6 302.4 
L 57.6 41.472 
" style="fill: none; stroke: #575279; stroke-width: 0.8; stroke-linejoin: miter; stroke-linecap: square"/>
   </g>
   <g id="patch_4">
    <path d="M 414.72 302.4 
L 414.72 41.472 
" style="fill: none; stroke: #575279; stroke-width: 0.8; stroke-linejoin: miter; stroke-linecap: square"/>
   </g>
   <g id="patch_5">
    <path d="M 57.6 302.4 
L 414.72 302.4 
" style="fill: none; stroke: #575279; stroke-width: 0.8; stroke-linejoin: miter; stroke-linecap: square"/>
   </g>
   <g id="patch_6">
    <path d="M 57.6 41.472 
L 414.72 41.472 
" style="fill: none; stroke: #575279; stroke-width: 0.8; stroke-linejoin: miter; stroke-linecap: square"/>
   </g>
   <g id="text_17">
    <!-- Pendulum Motion -->
    <g style="fill: #575279" transform="translate(180.657981 35.472)scale(0.144 -0.144)">
     <defs>
      <path id="CMR17-50" d="M 1267 2048 
L 2291 2048 
C 3117 2048 3718 2583 3718 3187 
C 3718 3791 3130 4352 2291 4352 
L 333 4352 
L 333 4185 
C 774 4185 845 4185 845 3899 
L 845 453 
C 845 166 774 166 333 166 
L 333 0 
C 518 12 858 12 1056 12 
C 1254 12 1594 12 1779 0 
L 1779 166 
C 1338 166 1267 166 1267 453 
L 1267 2048 
z
M 1254 2182 
L 1254 3937 
C 1254 4153 1267 4185 1523 4185 
L 2170 4185 
C 2995 4185 3232 3715 3232 3187 
C 3232 2608 2950 2182 2170 2182 
L 1254 2182 
z
" transform="scale(0.015625)"/>
      <path id="CMR17-64" d="M 1869 4345 
L 1869 4179 
C 2246 4179 2304 4141 2304 3843 
L 2304 2371 
C 2278 2403 2016 2816 1498 2816 
C 845 2816 211 2228 211 1376 
C 211 529 806 -64 1434 -64 
C 1978 -64 2259 361 2291 406 
L 2291 -64 
L 3066 -13 
L 3066 154 
C 2688 154 2630 193 2630 503 
L 2630 4416 
L 1869 4345 
z
M 2291 762 
C 2291 568 2176 393 2029 264 
C 1811 70 1594 38 1472 38 
C 1286 38 621 135 621 1369 
C 621 2636 1363 2713 1530 2713 
C 1824 2713 2061 2545 2208 2313 
C 2291 2177 2291 2157 2291 2041 
L 2291 762 
z
" transform="scale(0.015625)"/>
      <path id="CMR17-75" d="M 1882 2745 
L 1882 2579 
C 2259 2579 2317 2540 2317 2229 
L 2317 1053 
C 2317 510 2029 38 1555 38 
C 1030 38 986 355 986 691 
L 986 2816 
L 211 2745 
L 211 2579 
C 467 2579 640 2579 646 2320 
L 646 1079 
C 646 646 646 368 813 187 
C 896 103 1056 -64 1517 -64 
C 2061 -64 2272 400 2323 536 
L 2330 536 
L 2330 -64 
L 3091 -13 
L 3091 154 
C 2714 154 2656 193 2656 503 
L 2656 2816 
L 1882 2745 
z
" transform="scale(0.015625)"/>
      <path id="CMR17-4d" d="M 1338 4249 
C 1299 4345 1293 4352 1158 4352 
L 339 4352 
L 339 4185 
C 781 4185 851 4185 851 3898 
L 851 624 
C 851 465 851 166 339 166 
L 339 0 
C 486 12 755 12 915 12 
C 1075 12 1344 12 1491 0 
L 1491 166 
C 979 166 979 465 979 624 
L 979 4159 
L 986 4159 
L 2490 102 
C 2515 38 2528 0 2579 0 
C 2630 0 2643 38 2669 102 
L 4186 4191 
L 4192 4191 
L 4192 453 
C 4192 166 4122 166 3680 166 
L 3680 0 
C 3853 12 4198 12 4384 12 
C 4570 12 4922 12 5094 0 
L 5094 166 
C 4653 166 4582 166 4582 453 
L 4582 3898 
C 4582 4185 4653 4185 5094 4185 
L 5094 4352 
L 4282 4352 
C 4147 4352 4141 4345 4102 4249 
L 2720 516 
L 1338 4249 
z
" transform="scale(0.015625)"/>
      <path id="CMR17-6f" d="M 2758 1356 
C 2758 2176 2163 2816 1466 2816 
C 768 2816 173 2176 173 1356 
C 173 550 768 -64 1466 -64 
C 2163 -64 2758 550 2758 1356 
z
M 1466 51 
C 1165 51 909 230 762 480 
C 602 768 582 1126 582 1408 
C 582 1676 595 2009 762 2297 
C 890 2508 1139 2713 1466 2713 
C 1754 2713 1997 2553 2150 2329 
C 2349 2028 2349 1606 2349 1408 
C 2349 1158 2336 774 2163 467 
C 1984 172 1709 51 1466 51 
z
" transform="scale(0.015625)"/>
     </defs>
     <use xlink:href="#CMR17-50" transform="scale(0.996264)"/>
     <use xlink:href="#CMR17-65" transform="translate(59.983847 0)scale(0.996264)"/>
     <use xlink:href="#CMR17-6e" transform="translate(100.469507 0)scale(0.996264)"/>
     <use xlink:href="#CMR17-64" transform="translate(151.364877 0)scale(0.996264)"/>
     <use xlink:href="#CMR17-75" transform="translate(202.260247 0)scale(0.996264)"/>
     <use xlink:href="#CMR17-6c" transform="translate(253.155616 0)scale(0.996264)"/>
     <use xlink:href="#CMR17-75" transform="translate(278.026675 0)scale(0.996264)"/>
     <use xlink:href="#CMR17-6d" transform="translate(328.922045 0)scale(0.996264)"/>
     <use xlink:href="#CMR17-4d" transform="translate(435.917601 0)scale(0.996264)"/>
     <use xlink:href="#CMR17-6f" transform="translate(520.604541 0)scale(0.996264)"/>
     <use xlink:href="#CMR17-74" transform="translate(566.295019 0)scale(0.996264)"/>
     <use xlink:href="#CMR17-69" transform="translate(601.575786 0)scale(0.996264)"/>
     <use xlink:href="#CMR17-6f" transform="translate(626.446845 0)scale(0.996264)"/>
     <use xlink:href="#CMR17-6e" transform="translate(672.137322 0)scale(0.996264)"/>
    </g>
   </g>
   <g id="legend_1">
    <g id="patch_7">
     <path d="M 306.303087 101.245787 
L 406.32 101.245787 
Q 408.72 101.245787 408.72 98.845787 
L 408.72 49.872 
Q 408.72 47.472 406.32 47.472 
L 306.303087 47.472 
Q 303.903087 47.472 303.903087 49.872 
L 303.903087 98.845787 
Q 303.903087 101.245787 306.303087 101.245787 
z
" style="fill: #efddc7; opacity: 0.5; stroke: #575279; stroke-linejoin: miter"/>
    </g>
    <g id="line2d_18">
     <path d="M 308.703087 56.472 
L 320.703087 56.472 
L 332.703087 56.472 
" style="fill: none; stroke: #b4637a; stroke-width: 1.5; stroke-linecap: square"/>
    </g>
    <g id="text_18">
     <!-- Pendulum 1 -->
     <g style="fill: #575279" transform="translate(342.303087 60.672)scale(0.12 -0.12)">
      <use xlink:href="#CMR17-50" transform="scale(0.996264)"/>
      <use xlink:href="#CMR17-65" transform="translate(59.983847 0)scale(0.996264)"/>
      <use xlink:href="#CMR17-6e" transform="translate(100.469507 0)scale(0.996264)"/>
      <use xlink:href="#CMR17-64" transform="translate(151.364877 0)scale(0.996264)"/>
      <use xlink:href="#CMR17-75" transform="translate(202.260247 0)scale(0.996264)"/>
      <use xlink:href="#CMR17-6c" transform="translate(253.155616 0)scale(0.996264)"/>
      <use xlink:href="#CMR17-75" transform="translate(278.026675 0)scale(0.996264)"/>
      <use xlink:href="#CMR17-6d" transform="translate(328.922045 0)scale(0.996264)"/>
      <use xlink:href="#CMR17-31" transform="translate(435.917601 0)scale(0.996264)"/>
     </g>
    </g>
    <g id="line2d_19">
     <path d="M 308.703087 73.196596 
L 320.703087 73.196596 
L 332.703087 73.196596 
" style="fill: none; stroke: #ea9d34; stroke-width: 1.5; stroke-linecap: square"/>
    </g>
    <g id="text_19">
     <!-- Pendulum 2 -->
     <g style="fill: #575279" transform="translate(342.303087 77.396596)scale(0.12 -0.12)">
      <use xlink:href="#CMR17-50" transform="scale(0.996264)"/>
      <use xlink:href="#CMR17-65" transform="translate(59.983847 0)scale(0.996264)"/>
      <use xlink:href="#CMR17-6e" transform="translate(100.469507 0)scale(0.996264)"/>
      <use xlink:href="#CMR17-64" transform="translate(151.364877 0)scale(0.996264)"/>
      <use xlink:href="#CMR17-75" transform="translate(202.260247 0)scale(0.996264)"/>
      <use xlink:href="#CMR17-6c" transform="translate(253.155616 0)scale(0.996264)"/>
      <use xlink:href="#CMR17-75" transform="translate(278.026675 0)scale(0.996264)"/>
      <use xlink:href="#CMR17-6d" transform="translate(328.922045 0)scale(0.996264)"/>
      <use xlink:href="#CMR17-32" transform="translate(435.917601 0)scale(0.996264)"/>
     </g>
    </g>
    <g id="line2d_20">
     <path d="M 308.703087 89.921192 
L 320.703087 89.921192 
L 332.703087 89.921192 
" style="fill: none; stroke: #56949f; stroke-width: 1.5; stroke-linecap: square"/>
    </g>
    <g id="text_20">
     <!-- Pendulum 3 -->
     <g style="fill: #575279" transform="translate(342.303087 94.121192)scale(0.12 -0.12)">
      <defs>
       <path id="CMR17-33" d="M 1414 2176 
C 1984 2176 2234 1673 2234 1094 
C 2234 322 1824 25 1453 25 
C 1114 25 563 193 390 691 
C 422 678 454 678 486 678 
C 640 678 755 780 755 947 
C 755 1132 614 1216 486 1216 
C 378 1216 211 1164 211 927 
C 211 335 787 -128 1466 -128 
C 2176 -128 2720 432 2720 1087 
C 2720 1718 2208 2176 1600 2246 
C 2086 2347 2554 2776 2554 3353 
C 2554 3856 2048 4224 1472 4224 
C 890 4224 378 3862 378 3347 
C 378 3123 544 3084 627 3084 
C 762 3084 877 3167 877 3334 
C 877 3500 762 3584 627 3584 
C 602 3584 570 3584 544 3571 
C 730 3999 1235 4076 1459 4076 
C 1683 4076 2106 3966 2106 3347 
C 2106 3167 2080 2851 1862 2574 
C 1670 2329 1453 2316 1242 2297 
C 1210 2297 1062 2284 1037 2284 
C 992 2278 966 2272 966 2227 
C 966 2182 973 2176 1101 2176 
L 1414 2176 
z
" transform="scale(0.015625)"/>
      </defs>
      <use xlink:href="#CMR17-50" transform="scale(0.996264)"/>
      <use xlink:href="#CMR17-65" transform="translate(59.983847 0)scale(0.996264)"/>
      <use xlink:href="#CMR17-6e" transform="translate(100.469507 0)scale(0.996264)"/>
      <use xlink:href="#CMR17-64" transform="translate(151.364877 0)scale(0.996264)"/>
      <use xlink:href="#CMR17-75" transform="translate(202.260247 0)scale(0.996264)"/>
      <use xlink:href="#CMR17-6c" transform="translate(253.155616 0)scale(0.996264)"/>
      <use xlink:href="#CMR17-75" transform="translate(278.026675 0)scale(0.996264)"/>
      <use xlink:href="#CMR17-6d" transform="translate(328.922045 0)scale(0.996264)"/>
      <use xlink:href="#CMR17-33" transform="translate(435.917601 0)scale(0.996264)"/>
     </g>
    </g>
   </g>
  </g>
 </g>
 <defs>
  <clipPath id="p5751ca2aed">
   <rect x="57.6" y="41.472" width="357.12" height="260.928"/>
  </clipPath>
 </defs>
</svg>
