<?xml version="1.0" encoding="utf-8" standalone="no"?>
<!DOCTYPE svg PUBLIC "-//W3C//DTD SVG 1.1//EN"
  "http://www.w3.org/Graphics/SVG/1.1/DTD/svg11.dtd">
<svg xmlns:xlink="http://www.w3.org/1999/xlink" width="576pt" height="324pt" viewBox="0 0 576 324" xmlns="http://www.w3.org/2000/svg" version="1.1">
 <metadata>
  <rdf:RDF xmlns:dc="http://purl.org/dc/elements/1.1/" xmlns:cc="http://creativecommons.org/ns#" xmlns:rdf="http://www.w3.org/1999/02/22-rdf-syntax-ns#">
   <cc:Work>
    <dc:type rdf:resource="http://purl.org/dc/dcmitype/StillImage"/>
    <dc:date>2023-11-01T00:35:23.762925</dc:date>
    <dc:format>image/svg+xml</dc:format>
    <dc:creator>
     <cc:Agent>
      <dc:title>Matplotlib v3.5.2, https://matplotlib.org/</dc:title>
     </cc:Agent>
    </dc:creator>
   </cc:Work>
  </rdf:RDF>
 </metadata>
 <defs>
  <style type="text/css">*{stroke-linejoin: round; stroke-linecap: butt}</style>
 </defs>
 <g id="figure_1">
  <g id="patch_1">
   <path d="M 0 324 
L 576 324 
L 576 0 
L 0 0 
z
" style="fill: #faf4ed"/>
  </g>
  <g id="axes_1">
   <g id="patch_2">
    <path d="M 72 283.5 
L 518.4 283.5 
L 518.4 38.88 
L 72 38.88 
z
" style="fill: #faf4ed"/>
   </g>
   <g id="matplotlib.axis_1">
    <g id="xtick_1">
     <g id="line2d_1">
      <defs>
       <path id="mcb088a656d" d="M 0 0 
L 0 3.5 
" style="stroke: #b4637a; stroke-width: 0.8"/>
      </defs>
      <g>
       <use xlink:href="#mcb088a656d" x="92.290909" y="283.5" style="fill: #b4637a; stroke: #b4637a; stroke-width: 0.8"/>
      </g>
     </g>
     <g id="text_1">
      <!-- $\mathdefault{0.0}$ -->
      <g style="fill: #b4637a" transform="translate(82.319148 301.569588)scale(0.16 -0.16)">
       <defs>
        <path id="CMR17-30" d="M 2688 2038 
C 2688 2430 2682 3099 2413 3613 
C 2176 4063 1798 4224 1466 4224 
C 1158 4224 768 4082 525 3620 
C 269 3137 243 2539 243 2038 
C 243 1671 250 1112 448 623 
C 723 -39 1216 -128 1466 -128 
C 1760 -128 2208 -7 2470 604 
C 2662 1048 2688 1568 2688 2038 
z
M 1466 -26 
C 1056 -26 813 328 723 816 
C 653 1196 653 1749 653 2109 
C 653 2604 653 3015 736 3407 
C 858 3954 1216 4121 1466 4121 
C 1728 4121 2067 3947 2189 3420 
C 2272 3054 2278 2623 2278 2109 
C 2278 1691 2278 1176 2202 797 
C 2067 96 1690 -26 1466 -26 
z
" transform="scale(0.015625)"/>
        <path id="CMMI12-3a" d="M 1178 307 
C 1178 492 1024 620 870 620 
C 685 620 557 467 557 313 
C 557 128 710 0 864 0 
C 1050 0 1178 153 1178 307 
z
" transform="scale(0.015625)"/>
       </defs>
       <use xlink:href="#CMR17-30" transform="scale(0.996264)"/>
       <use xlink:href="#CMMI12-3a" transform="translate(45.690477 0)scale(0.996264)"/>
       <use xlink:href="#CMR17-30" transform="translate(72.787654 0)scale(0.996264)"/>
      </g>
     </g>
    </g>
    <g id="xtick_2">
     <g id="line2d_2">
      <g>
       <use xlink:href="#mcb088a656d" x="143.018182" y="283.5" style="fill: #b4637a; stroke: #b4637a; stroke-width: 0.8"/>
      </g>
     </g>
     <g id="text_2">
      <!-- $\mathdefault{2.5}$ -->
      <g style="fill: #b4637a" transform="translate(133.046421 301.569588)scale(0.16 -0.16)">
       <defs>
        <path id="CMR17-32" d="M 2669 990 
L 2554 990 
C 2490 537 2438 460 2413 422 
C 2381 371 1920 371 1830 371 
L 602 371 
C 832 620 1280 1073 1824 1596 
C 2214 1966 2669 2400 2669 3033 
C 2669 3788 2067 4224 1395 4224 
C 691 4224 262 3603 262 3027 
C 262 2777 448 2745 525 2745 
C 589 2745 781 2783 781 3007 
C 781 3206 614 3264 525 3264 
C 486 3264 448 3257 422 3244 
C 544 3788 915 4057 1306 4057 
C 1862 4057 2227 3616 2227 3033 
C 2227 2477 1901 1998 1536 1583 
L 262 147 
L 262 0 
L 2515 0 
L 2669 990 
z
" transform="scale(0.015625)"/>
        <path id="CMR17-35" d="M 730 3750 
C 794 3724 1056 3641 1325 3641 
C 1920 3641 2246 3961 2432 4140 
C 2432 4191 2432 4224 2394 4224 
C 2387 4224 2374 4224 2323 4198 
C 2099 4102 1837 4032 1517 4032 
C 1325 4032 1037 4055 723 4191 
C 653 4224 640 4224 634 4224 
C 602 4224 595 4217 595 4090 
L 595 2231 
C 595 2113 595 2080 659 2080 
C 691 2080 704 2093 736 2139 
C 941 2435 1222 2560 1542 2560 
C 1766 2560 2246 2415 2246 1293 
C 2246 1087 2246 716 2054 422 
C 1894 159 1645 25 1370 25 
C 947 25 518 319 403 812 
C 429 806 480 793 506 793 
C 589 793 749 838 749 1036 
C 749 1209 627 1280 506 1280 
C 358 1280 262 1190 262 1011 
C 262 454 704 -128 1382 -128 
C 2042 -128 2669 441 2669 1267 
C 2669 2054 2170 2662 1549 2662 
C 1222 2662 947 2540 730 2304 
L 730 3750 
z
" transform="scale(0.015625)"/>
       </defs>
       <use xlink:href="#CMR17-32" transform="scale(0.996264)"/>
       <use xlink:href="#CMMI12-3a" transform="translate(45.690477 0)scale(0.996264)"/>
       <use xlink:href="#CMR17-35" transform="translate(72.787654 0)scale(0.996264)"/>
      </g>
     </g>
    </g>
    <g id="xtick_3">
     <g id="line2d_3">
      <g>
       <use xlink:href="#mcb088a656d" x="193.745455" y="283.5" style="fill: #b4637a; stroke: #b4637a; stroke-width: 0.8"/>
      </g>
     </g>
     <g id="text_3">
      <!-- $\mathdefault{5.0}$ -->
      <g style="fill: #b4637a" transform="translate(183.773693 301.569588)scale(0.16 -0.16)">
       <use xlink:href="#CMR17-35" transform="scale(0.996264)"/>
       <use xlink:href="#CMMI12-3a" transform="translate(45.690477 0)scale(0.996264)"/>
       <use xlink:href="#CMR17-30" transform="translate(72.787654 0)scale(0.996264)"/>
      </g>
     </g>
    </g>
    <g id="xtick_4">
     <g id="line2d_4">
      <g>
       <use xlink:href="#mcb088a656d" x="244.472727" y="283.5" style="fill: #b4637a; stroke: #b4637a; stroke-width: 0.8"/>
      </g>
     </g>
     <g id="text_4">
      <!-- $\mathdefault{7.5}$ -->
      <g style="fill: #b4637a" transform="translate(234.500966 301.569588)scale(0.16 -0.16)">
       <defs>
        <path id="CMR17-37" d="M 2886 3955 
L 2886 4096 
L 1382 4096 
C 634 4096 621 4166 595 4288 
L 480 4288 
L 294 3104 
L 410 3104 
C 429 3226 474 3552 550 3673 
C 589 3724 1062 3724 1171 3724 
L 2579 3724 
L 1869 2670 
C 1395 1961 1069 1003 1069 166 
C 1069 89 1069 -128 1299 -128 
C 1530 -128 1530 89 1530 172 
L 1530 466 
C 1530 1514 1709 2204 2003 2644 
L 2886 3955 
z
" transform="scale(0.015625)"/>
       </defs>
       <use xlink:href="#CMR17-37" transform="scale(0.996264)"/>
       <use xlink:href="#CMMI12-3a" transform="translate(45.690477 0)scale(0.996264)"/>
       <use xlink:href="#CMR17-35" transform="translate(72.787654 0)scale(0.996264)"/>
      </g>
     </g>
    </g>
    <g id="xtick_5">
     <g id="line2d_5">
      <g>
       <use xlink:href="#mcb088a656d" x="295.2" y="283.5" style="fill: #b4637a; stroke: #b4637a; stroke-width: 0.8"/>
      </g>
     </g>
     <g id="text_5">
      <!-- $\mathdefault{10.0}$ -->
      <g style="fill: #b4637a" transform="translate(281.326245 301.569588)scale(0.16 -0.16)">
       <defs>
        <path id="CMR17-31" d="M 1702 4083 
C 1702 4217 1696 4224 1606 4224 
C 1357 3927 979 3833 621 3820 
C 602 3820 570 3820 563 3808 
C 557 3795 557 3782 557 3648 
C 755 3648 1088 3686 1344 3839 
L 1344 467 
C 1344 243 1331 166 781 166 
L 589 166 
L 589 0 
C 896 6 1216 12 1523 12 
C 1830 12 2150 6 2458 0 
L 2458 166 
L 2266 166 
C 1715 166 1702 236 1702 467 
L 1702 4083 
z
" transform="scale(0.015625)"/>
       </defs>
       <use xlink:href="#CMR17-31" transform="scale(0.996264)"/>
       <use xlink:href="#CMR17-30" transform="translate(45.690477 0)scale(0.996264)"/>
       <use xlink:href="#CMMI12-3a" transform="translate(91.380954 0)scale(0.996264)"/>
       <use xlink:href="#CMR17-30" transform="translate(118.478131 0)scale(0.996264)"/>
      </g>
     </g>
    </g>
    <g id="xtick_6">
     <g id="line2d_6">
      <g>
       <use xlink:href="#mcb088a656d" x="345.927273" y="283.5" style="fill: #b4637a; stroke: #b4637a; stroke-width: 0.8"/>
      </g>
     </g>
     <g id="text_6">
      <!-- $\mathdefault{12.5}$ -->
      <g style="fill: #b4637a" transform="translate(332.053518 301.569588)scale(0.16 -0.16)">
       <use xlink:href="#CMR17-31" transform="scale(0.996264)"/>
       <use xlink:href="#CMR17-32" transform="translate(45.690477 0)scale(0.996264)"/>
       <use xlink:href="#CMMI12-3a" transform="translate(91.380954 0)scale(0.996264)"/>
       <use xlink:href="#CMR17-35" transform="translate(118.478131 0)scale(0.996264)"/>
      </g>
     </g>
    </g>
    <g id="xtick_7">
     <g id="line2d_7">
      <g>
       <use xlink:href="#mcb088a656d" x="396.654545" y="283.5" style="fill: #b4637a; stroke: #b4637a; stroke-width: 0.8"/>
      </g>
     </g>
     <g id="text_7">
      <!-- $\mathdefault{15.0}$ -->
      <g style="fill: #b4637a" transform="translate(382.780791 301.569588)scale(0.16 -0.16)">
       <use xlink:href="#CMR17-31" transform="scale(0.996264)"/>
       <use xlink:href="#CMR17-35" transform="translate(45.690477 0)scale(0.996264)"/>
       <use xlink:href="#CMMI12-3a" transform="translate(91.380954 0)scale(0.996264)"/>
       <use xlink:href="#CMR17-30" transform="translate(118.478131 0)scale(0.996264)"/>
      </g>
     </g>
    </g>
    <g id="xtick_8">
     <g id="line2d_8">
      <g>
       <use xlink:href="#mcb088a656d" x="447.381818" y="283.5" style="fill: #b4637a; stroke: #b4637a; stroke-width: 0.8"/>
      </g>
     </g>
     <g id="text_8">
      <!-- $\mathdefault{17.5}$ -->
      <g style="fill: #b4637a" transform="translate(433.508064 301.569588)scale(0.16 -0.16)">
       <use xlink:href="#CMR17-31" transform="scale(0.996264)"/>
       <use xlink:href="#CMR17-37" transform="translate(45.690477 0)scale(0.996264)"/>
       <use xlink:href="#CMMI12-3a" transform="translate(91.380954 0)scale(0.996264)"/>
       <use xlink:href="#CMR17-35" transform="translate(118.478131 0)scale(0.996264)"/>
      </g>
     </g>
    </g>
    <g id="xtick_9">
     <g id="line2d_9">
      <g>
       <use xlink:href="#mcb088a656d" x="498.109091" y="283.5" style="fill: #b4637a; stroke: #b4637a; stroke-width: 0.8"/>
      </g>
     </g>
     <g id="text_9">
      <!-- $\mathdefault{20.0}$ -->
      <g style="fill: #b4637a" transform="translate(484.235336 301.569588)scale(0.16 -0.16)">
       <use xlink:href="#CMR17-32" transform="scale(0.996264)"/>
       <use xlink:href="#CMR17-30" transform="translate(45.690477 0)scale(0.996264)"/>
       <use xlink:href="#CMMI12-3a" transform="translate(91.380954 0)scale(0.996264)"/>
       <use xlink:href="#CMR17-30" transform="translate(118.478131 0)scale(0.996264)"/>
      </g>
     </g>
    </g>
    <g id="text_10">
     <!-- Time, $t$ (s) -->
     <g style="fill: #b4637a" transform="translate(258.087706 320.624233)scale(0.16 -0.16)">
      <defs>
       <path id="CMR17-54" d="M 3981 4332 
L 288 4332 
L 179 2924 
L 294 2924 
C 378 3981 467 4166 1453 4166 
C 1568 4166 1754 4166 1805 4159 
C 1926 4140 1926 4064 1926 3917 
L 1926 465 
C 1926 236 1907 166 1376 166 
L 1197 166 
L 1197 0 
C 1504 6 1824 12 2138 12 
C 2451 12 2771 6 3078 0 
L 3078 166 
L 2899 166 
C 2368 166 2349 236 2349 465 
L 2349 3917 
C 2349 4057 2349 4134 2464 4159 
C 2515 4166 2701 4166 2816 4166 
C 3795 4166 3891 3981 3974 2924 
L 4090 2924 
L 3981 4332 
z
" transform="scale(0.015625)"/>
       <path id="CMR17-69" d="M 992 3961 
C 992 4102 877 4224 730 4224 
C 589 4224 467 4108 467 3961 
C 467 3820 582 3699 730 3699 
C 870 3699 992 3814 992 3961 
z
M 243 2745 
L 243 2579 
C 602 2579 653 2540 653 2231 
L 653 443 
C 653 198 627 166 218 166 
L 218 0 
C 371 12 646 12 806 12 
C 960 12 1222 12 1370 0 
L 1370 166 
C 992 166 979 205 979 436 
L 979 2816 
L 243 2745 
z
" transform="scale(0.015625)"/>
       <path id="CMR17-6d" d="M 4326 1954 
C 4326 2276 4269 2816 3507 2816 
C 3072 2816 2771 2520 2656 2173 
L 2650 2173 
C 2573 2700 2195 2816 1837 2816 
C 1331 2816 1069 2424 973 2166 
L 966 2166 
L 966 2816 
L 211 2745 
L 211 2578 
C 589 2578 646 2540 646 2231 
L 646 443 
C 646 198 621 166 211 166 
L 211 0 
C 365 12 646 12 813 12 
C 979 12 1267 12 1421 0 
L 1421 166 
C 1011 166 986 192 986 443 
L 986 1678 
C 986 2269 1344 2713 1792 2713 
C 2266 2713 2317 2289 2317 1980 
L 2317 443 
C 2317 198 2291 166 1882 166 
L 1882 0 
C 2035 12 2317 12 2483 12 
C 2650 12 2938 12 3091 0 
L 3091 166 
C 2682 166 2656 192 2656 443 
L 2656 1678 
C 2656 2269 3014 2713 3462 2713 
C 3936 2713 3987 2289 3987 1980 
L 3987 443 
C 3987 198 3962 166 3552 166 
L 3552 0 
C 3706 12 3987 12 4154 12 
C 4320 12 4608 12 4762 0 
L 4762 166 
C 4352 166 4326 192 4326 443 
L 4326 1954 
z
" transform="scale(0.015625)"/>
       <path id="CMR17-65" d="M 2438 1503 
C 2464 1529 2464 1542 2464 1606 
C 2464 2251 2118 2816 1389 2816 
C 710 2816 173 2175 173 1394 
C 173 554 781 -64 1459 -64 
C 2176 -64 2458 619 2458 755 
C 2458 800 2419 800 2406 800 
C 2362 800 2355 787 2330 709 
C 2189 270 1837 51 1504 51 
C 1229 51 954 206 781 490 
C 582 819 582 1200 582 1503 
L 2438 1503 
z
M 589 1600 
C 634 2511 1126 2713 1382 2713 
C 1818 2713 2112 2308 2118 1600 
L 589 1600 
z
" transform="scale(0.015625)"/>
       <path id="CMR17-2c" d="M 1011 102 
C 1024 44 1024 25 1024 -76 
C 1024 -451 896 -795 627 -1108 
C 595 -1140 595 -1152 595 -1165 
C 595 -1191 621 -1216 646 -1216 
C 685 -1216 1126 -776 1126 -82 
C 1126 128 1101 524 800 524 
C 659 524 538 428 538 262 
C 538 96 659 0 800 0 
C 877 0 960 32 1011 102 
z
" transform="scale(0.015625)"/>
       <path id="CMMI12-74" d="M 1286 2566 
L 1875 2566 
C 1997 2566 2061 2566 2061 2681 
C 2061 2752 2022 2752 1894 2752 
L 1331 2752 
L 1568 3664 
C 1594 3752 1594 3764 1594 3808 
C 1594 3910 1510 3968 1427 3968 
C 1376 3968 1229 3948 1178 3746 
L 928 2752 
L 326 2752 
C 198 2752 141 2752 141 2630 
C 141 2566 186 2566 307 2566 
L 877 2566 
L 454 881 
C 403 657 384 593 384 510 
C 384 210 595 -64 954 -64 
C 1600 -64 1946 868 1946 913 
C 1946 951 1920 970 1882 970 
C 1869 970 1843 970 1830 944 
C 1824 938 1818 932 1773 830 
C 1638 510 1344 64 973 64 
C 781 64 768 223 768 364 
C 768 370 768 491 787 568 
L 1286 2566 
z
" transform="scale(0.015625)"/>
       <path id="CMR17-28" d="M 1958 -1562 
C 1958 -1556 1958 -1543 1939 -1524 
C 1645 -1223 858 -403 858 1596 
C 858 3595 1632 4408 1946 4729 
C 1946 4735 1958 4748 1958 4767 
C 1958 4787 1939 4800 1914 4800 
C 1843 4800 1299 4325 986 3620 
C 666 2909 576 2218 576 1603 
C 576 1141 621 360 1005 -467 
C 1312 -1133 1837 -1600 1914 -1600 
C 1946 -1600 1958 -1588 1958 -1562 
z
" transform="scale(0.015625)"/>
       <path id="CMR17-73" d="M 1978 2688 
C 1978 2803 1971 2809 1933 2809 
C 1907 2809 1901 2803 1824 2707 
C 1805 2681 1747 2617 1728 2592 
C 1523 2809 1235 2816 1126 2816 
C 416 2816 160 2444 160 2073 
C 160 1497 813 1363 998 1324 
C 1402 1241 1542 1216 1677 1100 
C 1760 1024 1901 883 1901 652 
C 1901 384 1747 38 1158 38 
C 602 38 403 460 288 1024 
C 269 1113 269 1120 218 1120 
C 166 1120 160 1113 160 985 
L 160 64 
C 160 -52 166 -58 205 -58 
C 237 -58 243 -52 275 0 
C 314 57 410 211 448 275 
C 576 102 800 -64 1158 -64 
C 1792 -64 2131 281 2131 780 
C 2131 1107 1958 1280 1875 1356 
C 1683 1555 1459 1600 1190 1651 
C 838 1728 390 1817 390 2208 
C 390 2374 480 2726 1126 2726 
C 1811 2726 1850 2086 1862 1881 
C 1869 1849 1901 1843 1920 1843 
C 1978 1843 1978 1862 1978 1971 
L 1978 2688 
z
" transform="scale(0.015625)"/>
       <path id="CMR17-29" d="M 1683 1596 
C 1683 2057 1638 2839 1254 3665 
C 947 4332 422 4800 346 4800 
C 326 4800 301 4793 301 4761 
C 301 4748 307 4742 314 4729 
C 621 4408 1402 3595 1402 1603 
C 1402 -396 627 -1210 314 -1530 
C 307 -1543 301 -1549 301 -1562 
C 301 -1594 326 -1600 346 -1600 
C 416 -1600 960 -1127 1274 -422 
C 1594 289 1683 981 1683 1596 
z
" transform="scale(0.015625)"/>
      </defs>
      <use xlink:href="#CMR17-54" transform="scale(0.996264)"/>
      <use xlink:href="#CMR17-69" transform="translate(66.509881 0)scale(0.996264)"/>
      <use xlink:href="#CMR17-6d" transform="translate(91.380939 0)scale(0.996264)"/>
      <use xlink:href="#CMR17-65" transform="translate(168.300529 0)scale(0.996264)"/>
      <use xlink:href="#CMR17-2c" transform="translate(208.786189 0)scale(0.996264)"/>
      <use xlink:href="#CMMI12-74" transform="translate(263.733214 0)scale(0.996264)"/>
      <use xlink:href="#CMR17-28" transform="translate(329.035511 0)scale(0.996264)"/>
      <use xlink:href="#CMR17-73" transform="translate(364.316279 0)scale(0.996264)"/>
      <use xlink:href="#CMR17-29" transform="translate(400.117616 0)scale(0.996264)"/>
     </g>
    </g>
   </g>
   <g id="matplotlib.axis_2">
    <g id="ytick_1">
     <g id="line2d_10">
      <defs>
       <path id="ma7d6f1fbf7" d="M 0 0 
L -3.5 0 
" style="stroke: #b4637a; stroke-width: 0.8"/>
      </defs>
      <g>
       <use xlink:href="#ma7d6f1fbf7" x="72" y="253.849071" style="fill: #b4637a; stroke: #b4637a; stroke-width: 0.8"/>
      </g>
     </g>
     <g id="text_11">
      <!-- $\mathdefault{−1.0}$ -->
      <g style="fill: #b4637a" transform="translate(32.658482 259.383865)scale(0.16 -0.16)">
       <defs>
        <path id="CMSY10-0" d="M 4218 1472 
C 4326 1472 4442 1472 4442 1600 
C 4442 1728 4326 1728 4218 1728 
L 755 1728 
C 646 1728 531 1728 531 1600 
C 531 1472 646 1472 755 1472 
L 4218 1472 
z
" transform="scale(0.015625)"/>
       </defs>
       <use xlink:href="#CMSY10-0" transform="scale(0.996264)"/>
       <use xlink:href="#CMR17-31" transform="translate(77.487468 0)scale(0.996264)"/>
       <use xlink:href="#CMMI12-3a" transform="translate(123.177945 0)scale(0.996264)"/>
       <use xlink:href="#CMR17-30" transform="translate(150.275122 0)scale(0.996264)"/>
      </g>
     </g>
    </g>
    <g id="ytick_2">
     <g id="line2d_11">
      <g>
       <use xlink:href="#ma7d6f1fbf7" x="72" y="207.519433" style="fill: #b4637a; stroke: #b4637a; stroke-width: 0.8"/>
      </g>
     </g>
     <g id="text_12">
      <!-- $\mathdefault{−0.5}$ -->
      <g style="fill: #b4637a" transform="translate(32.658482 213.054227)scale(0.16 -0.16)">
       <use xlink:href="#CMSY10-0" transform="scale(0.996264)"/>
       <use xlink:href="#CMR17-30" transform="translate(77.487468 0)scale(0.996264)"/>
       <use xlink:href="#CMMI12-3a" transform="translate(123.177945 0)scale(0.996264)"/>
       <use xlink:href="#CMR17-35" transform="translate(150.275122 0)scale(0.996264)"/>
      </g>
     </g>
    </g>
    <g id="ytick_3">
     <g id="line2d_12">
      <g>
       <use xlink:href="#ma7d6f1fbf7" x="72" y="161.189795" style="fill: #b4637a; stroke: #b4637a; stroke-width: 0.8"/>
      </g>
     </g>
     <g id="text_13">
      <!-- $\mathdefault{0.0}$ -->
      <g style="fill: #b4637a" transform="translate(45.056478 166.72459)scale(0.16 -0.16)">
       <use xlink:href="#CMR17-30" transform="scale(0.996264)"/>
       <use xlink:href="#CMMI12-3a" transform="translate(45.690477 0)scale(0.996264)"/>
       <use xlink:href="#CMR17-30" transform="translate(72.787654 0)scale(0.996264)"/>
      </g>
     </g>
    </g>
    <g id="ytick_4">
     <g id="line2d_13">
      <g>
       <use xlink:href="#ma7d6f1fbf7" x="72" y="114.860158" style="fill: #b4637a; stroke: #b4637a; stroke-width: 0.8"/>
      </g>
     </g>
     <g id="text_14">
      <!-- $\mathdefault{0.5}$ -->
      <g style="fill: #b4637a" transform="translate(45.056478 120.394952)scale(0.16 -0.16)">
       <use xlink:href="#CMR17-30" transform="scale(0.996264)"/>
       <use xlink:href="#CMMI12-3a" transform="translate(45.690477 0)scale(0.996264)"/>
       <use xlink:href="#CMR17-35" transform="translate(72.787654 0)scale(0.996264)"/>
      </g>
     </g>
    </g>
    <g id="ytick_5">
     <g id="line2d_14">
      <g>
       <use xlink:href="#ma7d6f1fbf7" x="72" y="68.53052" style="fill: #b4637a; stroke: #b4637a; stroke-width: 0.8"/>
      </g>
     </g>
     <g id="text_15">
      <!-- $\mathdefault{1.0}$ -->
      <g style="fill: #b4637a" transform="translate(45.056478 74.065314)scale(0.16 -0.16)">
       <use xlink:href="#CMR17-31" transform="scale(0.996264)"/>
       <use xlink:href="#CMMI12-3a" transform="translate(45.690477 0)scale(0.996264)"/>
       <use xlink:href="#CMR17-30" transform="translate(72.787654 0)scale(0.996264)"/>
      </g>
     </g>
    </g>
    <g id="text_16">
     <!-- Displacement, $s$ (cm) -->
     <g style="fill: #b4637a" transform="translate(24.673426 233.951591)rotate(-90)scale(0.16 -0.16)">
      <defs>
       <path id="CMR17-44" d="M 333 4352 
L 333 4185 
C 774 4185 845 4185 845 3898 
L 845 453 
C 845 166 774 166 333 166 
L 333 0 
L 2368 0 
C 3398 0 4224 943 4224 2140 
C 4224 3344 3411 4352 2368 4352 
L 333 4352 
z
M 1523 166 
C 1267 166 1254 198 1254 414 
L 1254 3936 
C 1254 4153 1267 4185 1523 4185 
L 2240 4185 
C 2771 4185 3750 3873 3750 2140 
C 3750 1242 3488 879 3366 707 
C 3213 510 2848 166 2240 166 
L 1523 166 
z
" transform="scale(0.015625)"/>
       <path id="CMR17-70" d="M 1408 -1114 
C 998 -1114 973 -1088 973 -834 
L 973 380 
C 1158 109 1427 -64 1766 -64 
C 2406 -64 3053 503 3053 1382 
C 3053 2196 2496 2816 1837 2816 
C 1453 2816 1139 2603 960 2345 
L 960 2816 
L 198 2745 
L 198 2577 
C 576 2577 634 2539 634 2228 
L 634 -834 
C 634 -1081 608 -1114 198 -1114 
L 198 -1280 
C 352 -1268 634 -1268 800 -1268 
C 966 -1268 1254 -1268 1408 -1280 
L 1408 -1114 
z
M 973 2015 
C 973 2106 973 2241 1222 2481 
C 1254 2506 1472 2700 1792 2700 
C 2259 2700 2643 2112 2643 1376 
C 2643 639 2234 38 1728 38 
C 1498 38 1248 148 1056 451 
C 973 594 973 632 973 736 
L 973 2015 
z
" transform="scale(0.015625)"/>
       <path id="CMR17-6c" d="M 979 4416 
L 218 4345 
L 218 4179 
C 595 4179 653 4141 653 3835 
L 653 439 
C 653 198 627 166 218 166 
L 218 0 
C 371 12 653 12 813 12 
C 979 12 1261 12 1414 0 
L 1414 166 
C 1005 166 979 191 979 439 
L 979 4416 
z
" transform="scale(0.015625)"/>
       <path id="CMR17-61" d="M 2304 1656 
C 2304 2048 2304 2275 2035 2534 
C 1798 2751 1523 2816 1306 2816 
C 800 2816 435 2408 435 1977 
C 435 1740 627 1728 666 1728 
C 749 1728 896 1779 896 1958 
C 896 2118 774 2188 666 2188 
C 640 2188 608 2182 589 2176 
C 723 2594 1069 2713 1293 2713 
C 1613 2713 1965 2421 1965 1875 
L 1965 1632 
C 1587 1619 1133 1568 774 1373 
C 371 1147 256 822 256 576 
C 256 77 832 -64 1171 -64 
C 1523 -64 1850 135 1990 505 
C 2003 219 2182 -39 2464 -39 
C 2598 -39 2938 51 2938 563 
L 2938 926 
L 2822 926 
L 2822 557 
C 2822 161 2650 109 2566 109 
C 2304 109 2304 446 2304 732 
L 2304 1656 
z
M 1965 887 
C 1965 323 1568 38 1216 38 
C 896 38 646 278 646 576 
C 646 771 730 1114 1101 1322 
C 1408 1497 1760 1523 1965 1536 
L 1965 887 
z
" transform="scale(0.015625)"/>
       <path id="CMR17-63" d="M 2234 2240 
C 2112 2240 1933 2240 1933 2015 
C 1933 1836 2080 1785 2163 1785 
C 2208 1785 2394 1804 2394 2028 
C 2394 2476 1958 2816 1466 2816 
C 787 2816 211 2201 211 1379 
C 211 521 813 -64 1466 -64 
C 2259 -64 2458 676 2458 747 
C 2458 773 2451 792 2406 792 
C 2362 792 2355 786 2330 702 
C 2163 180 1798 51 1523 51 
C 1114 51 621 431 621 1385 
C 621 2358 1094 2700 1472 2700 
C 1722 2700 2093 2582 2234 2240 
z
" transform="scale(0.015625)"/>
       <path id="CMR17-6e" d="M 2656 1954 
C 2656 2282 2592 2816 1837 2816 
C 1331 2816 1069 2424 973 2166 
L 966 2166 
L 966 2816 
L 211 2745 
L 211 2578 
C 589 2578 646 2540 646 2231 
L 646 443 
C 646 198 621 166 211 166 
L 211 0 
C 365 12 646 12 813 12 
C 979 12 1267 12 1421 0 
L 1421 166 
C 1011 166 986 192 986 443 
L 986 1678 
C 986 2269 1344 2713 1792 2713 
C 2266 2713 2317 2289 2317 1980 
L 2317 443 
C 2317 198 2291 166 1882 166 
L 1882 0 
C 2035 12 2317 12 2483 12 
C 2650 12 2938 12 3091 0 
L 3091 166 
C 2682 166 2656 192 2656 443 
L 2656 1954 
z
" transform="scale(0.015625)"/>
       <path id="CMR17-74" d="M 966 2585 
L 1862 2585 
L 1862 2752 
L 966 2752 
L 966 3968 
L 851 3968 
C 838 3292 614 2700 70 2687 
L 70 2585 
L 627 2585 
L 627 778 
C 627 655 627 -64 1370 -64 
C 1747 -64 1965 308 1965 784 
L 1965 1151 
L 1850 1151 
L 1850 790 
C 1850 347 1677 51 1408 51 
C 1222 51 966 179 966 765 
L 966 2585 
z
" transform="scale(0.015625)"/>
       <path id="CMMI12-73" d="M 1459 1290 
C 1568 1271 1741 1233 1779 1227 
C 1862 1201 2150 1099 2150 793 
C 2150 595 1971 64 1229 64 
C 1094 64 614 83 486 447 
C 742 414 870 614 870 755 
C 870 889 781 960 653 960 
C 512 960 326 851 326 563 
C 326 176 710 -64 1222 -64 
C 2195 -64 2483 665 2483 998 
C 2483 1093 2483 1271 2278 1475 
C 2118 1627 1965 1659 1619 1729 
C 1446 1767 1171 1824 1171 2111 
C 1171 2239 1286 2687 1894 2687 
C 2163 2687 2426 2589 2490 2368 
C 2208 2368 2195 2124 2195 2118 
C 2195 1983 2317 1945 2374 1945 
C 2464 1945 2643 2015 2643 2284 
C 2643 2546 2400 2816 1901 2816 
C 1062 2816 838 2169 838 1907 
C 838 1424 1312 1322 1459 1290 
z
" transform="scale(0.015625)"/>
      </defs>
      <use xlink:href="#CMR17-44" transform="scale(0.996264)"/>
      <use xlink:href="#CMR17-69" transform="translate(70.393556 0)scale(0.996264)"/>
      <use xlink:href="#CMR17-73" transform="translate(95.264614 0)scale(0.996264)"/>
      <use xlink:href="#CMR17-70" transform="translate(131.065952 0)scale(0.996264)"/>
      <use xlink:href="#CMR17-6c" transform="translate(181.961322 0)scale(0.996264)"/>
      <use xlink:href="#CMR17-61" transform="translate(206.83238 0)scale(0.996264)"/>
      <use xlink:href="#CMR17-63" transform="translate(252.522857 0)scale(0.996264)"/>
      <use xlink:href="#CMR17-65" transform="translate(293.008518 0)scale(0.996264)"/>
      <use xlink:href="#CMR17-6d" transform="translate(333.494178 0)scale(0.996264)"/>
      <use xlink:href="#CMR17-65" transform="translate(410.413768 0)scale(0.996264)"/>
      <use xlink:href="#CMR17-6e" transform="translate(450.899429 0)scale(0.996264)"/>
      <use xlink:href="#CMR17-74" transform="translate(499.192345 0)scale(0.996264)"/>
      <use xlink:href="#CMR17-2c" transform="translate(534.473112 0)scale(0.996264)"/>
      <use xlink:href="#CMMI12-73" transform="translate(589.420137 0)scale(0.996264)"/>
      <use xlink:href="#CMR17-28" transform="translate(665.446151 0)scale(0.996264)"/>
      <use xlink:href="#CMR17-63" transform="translate(700.726919 0)scale(0.996264)"/>
      <use xlink:href="#CMR17-6d" transform="translate(741.212579 0)scale(0.996264)"/>
      <use xlink:href="#CMR17-29" transform="translate(818.132169 0)scale(0.996264)"/>
     </g>
    </g>
   </g>
   <g id="line2d_15">
    <path d="M 92.290909 63.610398 
L 95.005412 67.391698 
L 97.719915 71.592515 
L 100.434418 76.194061 
L 103.148921 81.175755 
L 105.863424 86.515316 
L 109.935178 95.143006 
L 114.006932 104.435032 
L 118.078687 114.297929 
L 123.507692 128.164309 
L 130.29395 146.297105 
L 147.938218 194.095877 
L 153.367224 207.968268 
L 157.438978 217.83701 
L 161.510733 227.135963 
L 165.582487 235.771593 
L 168.29699 241.11697 
L 171.011493 246.104868 
L 173.725996 250.712979 
L 176.440499 254.920693 
L 179.155002 258.70919 
L 181.869504 262.061526 
L 184.584007 264.962708 
L 187.29851 267.39976 
L 190.013013 269.361782 
L 192.727516 270.839999 
L 194.084767 271.395529 
L 195.442019 271.827799 
L 196.79927 272.136326 
L 198.156522 272.320765 
L 199.513773 272.380909 
L 200.871025 272.316691 
L 202.228276 272.128184 
L 203.585528 271.815597 
L 204.942779 271.37928 
L 206.30003 270.819722 
L 209.014533 269.333521 
L 211.729036 267.363642 
L 214.443539 264.918894 
L 217.158042 262.010212 
L 219.872545 258.650606 
L 222.587048 254.8551 
L 225.301551 250.640671 
L 228.016054 246.026169 
L 230.730556 241.032231 
L 233.445059 235.681193 
L 237.516814 227.037838 
L 241.588568 217.732147 
L 245.660322 207.857721 
L 251.089328 193.97949 
L 257.875585 175.837823 
L 275.519854 128.048002 
L 280.94886 114.187496 
L 285.020614 104.330307 
L 289.092369 95.045042 
L 293.164123 86.425098 
L 295.878626 81.09121 
L 298.593129 76.115568 
L 301.307631 71.520425 
L 304.022134 67.326334 
L 306.736637 63.552051 
L 309.45114 60.214459 
L 312.165643 57.328485 
L 314.880146 54.907036 
L 317.594649 52.960942 
L 320.309152 51.498908 
L 321.666403 50.951542 
L 323.023655 50.527473 
L 324.380906 50.227173 
L 325.738157 50.05098 
L 327.095409 49.999091 
L 328.45266 50.071563 
L 329.809912 50.268315 
L 331.167163 50.589127 
L 332.524415 51.033641 
L 333.881666 51.60136 
L 336.596169 53.103732 
L 339.310672 55.089526 
L 342.025175 57.549858 
L 344.739678 60.473726 
L 347.454181 63.848052 
L 350.168683 67.657745 
L 352.883186 71.885764 
L 355.597689 76.513201 
L 358.312192 81.519359 
L 361.026695 86.881847 
L 365.098449 95.540823 
L 369.170204 104.860134 
L 373.241958 114.74604 
L 378.670964 128.636054 
L 385.457221 146.786503 
L 403.10149 194.567137 
L 408.530496 208.41569 
L 412.60225 218.261278 
L 416.674004 227.532809 
L 420.745759 236.137025 
L 423.460261 241.459396 
L 426.174764 246.422758 
L 428.889267 251.00491 
L 431.60377 255.185359 
L 434.318273 258.945408 
L 437.032776 262.268239 
L 439.747279 265.138992 
L 442.461782 267.544826 
L 445.176285 269.474982 
L 447.890787 270.920826 
L 449.248039 271.460025 
L 450.60529 271.875892 
L 451.962542 272.167962 
L 453.319793 272.335908 
L 454.677045 272.379543 
L 456.034296 272.298817 
L 457.391548 272.093821 
L 458.748799 271.764785 
L 460.10605 271.312076 
L 461.463302 270.7362 
L 464.177805 269.217663 
L 466.892308 267.215966 
L 469.606811 264.74006 
L 472.321313 261.801021 
L 475.035816 258.411992 
L 477.750319 254.588131 
L 480.464822 250.346541 
L 483.179325 245.706193 
L 485.893828 240.687841 
L 488.608331 235.313929 
L 492.680085 226.639373 
L 496.751839 217.306488 
L 498.109091 214.065284 
L 498.109091 214.065284 
" clip-path="url(#p3a358c2764)" style="fill: none; stroke: #b4637a; stroke-width: 1.5; stroke-linecap: square"/>
   </g>
   <g id="line2d_16">
    <path d="M 92.290909 161.189795 
L 101.791669 139.694607 
L 107.220675 127.864869 
L 112.649681 116.630654 
L 116.721435 108.717077 
L 120.793189 101.331299 
L 124.864944 94.547612 
L 127.579447 90.393615 
L 130.29395 86.556257 
L 133.008452 83.052702 
L 135.722955 79.898619 
L 138.437458 77.108116 
L 141.151961 74.693673 
L 143.866464 72.666088 
L 146.580967 71.03443 
L 149.29547 69.805997 
L 152.009973 68.986284 
L 154.724476 68.578955 
L 157.438978 68.585834 
L 160.153481 69.006889 
L 162.867984 69.840237 
L 165.582487 71.082151 
L 168.29699 72.727076 
L 171.011493 74.767656 
L 173.725996 77.194763 
L 176.440499 79.997543 
L 179.155002 83.16346 
L 181.869504 86.678353 
L 184.584007 90.526504 
L 187.29851 94.690699 
L 190.013013 99.152316 
L 194.084767 106.358412 
L 198.156522 114.116032 
L 202.228276 122.347147 
L 207.657282 133.914832 
L 214.443539 149.034748 
L 232.087808 188.857679 
L 237.516814 200.405583 
L 241.588568 208.617463 
L 245.660322 216.352289 
L 249.732077 223.53226 
L 252.44658 227.974738 
L 255.161082 232.118516 
L 257.875585 235.945063 
L 260.590088 239.437262 
L 263.304591 242.579495 
L 266.019094 245.357708 
L 268.733597 247.759475 
L 271.4481 249.774055 
L 274.162603 251.392437 
L 276.877106 252.607382 
L 279.591608 253.413458 
L 282.306111 253.807058 
L 285.020614 253.786422 
L 287.735117 253.351643 
L 290.44962 252.504664 
L 293.164123 251.249275 
L 295.878626 249.59109 
L 298.593129 247.537526 
L 301.307631 245.097766 
L 304.022134 242.282724 
L 306.736637 239.104989 
L 309.45114 235.578774 
L 312.165643 231.71985 
L 314.880146 227.545476 
L 317.594649 223.074323 
L 321.666403 215.855218 
L 325.738157 208.086258 
L 329.809912 199.845586 
L 335.238918 188.268097 
L 342.025175 173.140882 
L 359.669444 133.325656 
L 365.098449 121.787727 
L 369.170204 113.585526 
L 373.241958 105.862154 
L 377.313712 98.695299 
L 380.028215 94.262423 
L 382.742718 90.128884 
L 385.457221 86.313168 
L 388.171724 82.832342 
L 390.886227 79.701974 
L 393.60073 76.936065 
L 396.315233 74.546986 
L 399.029735 72.545421 
L 401.744238 70.940322 
L 404.458741 69.73887 
L 407.173244 68.946437 
L 409.887747 68.566567 
L 412.60225 68.60096 
L 415.316753 69.049462 
L 418.031256 69.910066 
L 420.745759 71.178924 
L 423.460261 72.85036 
L 426.174764 74.9169 
L 428.889267 77.369299 
L 431.60377 80.196591 
L 434.318273 83.386129 
L 437.032776 86.923648 
L 439.747279 90.793326 
L 442.461782 94.977857 
L 445.176285 99.458524 
L 449.248039 106.690603 
L 453.319793 114.470865 
L 457.391548 122.721053 
L 462.820553 134.308289 
L 469.606811 149.442729 
L 487.251079 189.250053 
L 492.680085 200.777949 
L 496.751839 208.970433 
L 498.109091 211.598397 
L 498.109091 211.598397 
" clip-path="url(#p3a358c2764)" style="fill: none; stroke: #ea9d34; stroke-width: 1.5; stroke-linecap: square"/>
   </g>
   <g id="line2d_17">
    <path d="M 92.290909 170.721594 
L 97.719915 163.47889 
L 105.863424 152.47467 
L 109.935178 147.388119 
L 112.649681 144.293038 
L 115.364184 141.499906 
L 118.078687 139.058636 
L 120.793189 137.012855 
L 123.507692 135.399122 
L 126.222195 134.246273 
L 127.579447 133.849451 
L 128.936698 133.57491 
L 130.29395 133.423879 
L 131.651201 133.397032 
L 133.008452 133.494489 
L 134.365704 133.715816 
L 135.722955 134.060021 
L 137.080207 134.525566 
L 139.79471 135.811812 
L 142.509213 137.551568 
L 145.223715 139.713744 
L 147.938218 142.259701 
L 150.652721 145.143944 
L 153.367224 148.314929 
L 157.438978 153.483939 
L 164.225236 162.677873 
L 169.654241 169.9635 
L 173.725996 175.045006 
L 176.440499 178.135514 
L 179.155002 180.923198 
L 181.869504 183.358242 
L 184.584007 185.397131 
L 187.29851 187.00343 
L 190.013013 188.148433 
L 191.370265 188.541222 
L 192.727516 188.81168 
L 194.084767 188.958598 
L 195.442019 188.981318 
L 196.79927 188.879739 
L 198.156522 188.654315 
L 199.513773 188.306055 
L 200.871025 187.836515 
L 203.585528 186.542533 
L 206.30003 184.795492 
L 209.014533 182.626612 
L 211.729036 180.074651 
L 214.443539 177.185214 
L 217.158042 174.009936 
L 221.229796 168.836338 
L 228.016054 159.640097 
L 233.445059 152.357554 
L 237.516814 147.281118 
L 240.231317 144.195199 
L 242.945819 141.412976 
L 245.660322 138.98417 
L 248.374825 136.952183 
L 251.089328 135.353327 
L 253.803831 134.216175 
L 255.161082 133.827421 
L 256.518334 133.561047 
L 257.875585 133.418244 
L 259.232837 133.399651 
L 260.590088 133.505351 
L 261.94734 133.734871 
L 263.304591 134.087184 
L 264.661843 134.560716 
L 267.376345 135.862428 
L 270.090848 137.616746 
L 272.805351 139.79232 
L 275.519854 142.350271 
L 278.234357 145.244888 
L 280.94886 148.424444 
L 285.020614 153.602603 
L 291.806871 162.801106 
L 297.235877 170.08053 
L 301.307631 175.151871 
L 304.022134 178.233186 
L 306.736637 181.009933 
L 309.45114 183.43249 
L 312.165643 185.457565 
L 314.880146 187.048969 
L 317.594649 188.178265 
L 318.9519 188.562982 
L 320.309152 188.825271 
L 321.666403 188.963958 
L 323.023655 188.978425 
L 324.380906 188.868605 
L 325.738157 188.63499 
L 327.095409 188.278625 
L 328.45266 187.801103 
L 331.167163 186.491667 
L 333.881666 184.730081 
L 336.596169 182.547825 
L 339.310672 179.983896 
L 342.025175 177.084113 
L 344.739678 173.900294 
L 348.811432 168.7176 
L 355.597689 159.51688 
L 361.026695 152.240612 
L 365.098449 147.174391 
L 367.812952 144.097694 
L 370.527455 141.326436 
L 373.241958 138.910141 
L 375.956461 136.891989 
L 378.670964 135.308043 
L 381.385467 134.186609 
L 382.742718 133.805931 
L 384.09997 133.547729 
L 385.457221 133.413157 
L 386.814472 133.402818 
L 388.171724 133.516758 
L 389.528975 133.754467 
L 390.886227 134.114881 
L 392.243478 134.59639 
L 394.957981 135.913544 
L 397.672484 137.68239 
L 400.386987 139.871318 
L 403.10149 142.441211 
L 405.815993 145.346147 
L 408.530496 148.534211 
L 412.60225 153.721416 
L 419.388507 162.924308 
L 424.817513 170.197384 
L 428.889267 175.258459 
L 431.60377 178.330523 
L 434.318273 181.096277 
L 437.032776 183.506299 
L 439.747279 185.51752 
L 442.461782 187.093999 
L 445.176285 188.207565 
L 446.533536 188.584202 
L 447.890787 188.838317 
L 449.248039 188.968772 
L 450.60529 188.974984 
L 451.962542 188.856925 
L 453.319793 188.615123 
L 454.677045 188.250661 
L 456.034296 187.765167 
L 458.748799 186.440302 
L 461.463302 184.664206 
L 464.177805 182.468617 
L 466.892308 179.89277 
L 469.606811 176.982698 
L 472.321313 173.790403 
L 476.393068 168.598713 
L 483.179325 159.393695 
L 488.608331 152.123847 
L 492.680085 147.067941 
L 495.394588 144.000526 
L 498.109091 141.240288 
L 498.109091 141.240288 
" clip-path="url(#p3a358c2764)" style="fill: none; stroke: #56949f; stroke-width: 1.5; stroke-linecap: square"/>
   </g>
   <g id="patch_3">
    <path d="M 72 283.5 
L 72 38.88 
" style="fill: none; stroke: #b4637a; stroke-width: 0.8; stroke-linejoin: miter; stroke-linecap: square"/>
   </g>
   <g id="patch_4">
    <path d="M 72 283.5 
L 518.4 283.5 
" style="fill: none; stroke: #b4637a; stroke-width: 0.8; stroke-linejoin: miter; stroke-linecap: square"/>
   </g>
   <g id="text_17">
    <!-- Pendulum Motion -->
    <g style="fill: #575279" transform="translate(225.788928 32.88)scale(0.192 -0.192)">
     <defs>
      <path id="CMR17-50" d="M 1267 2048 
L 2291 2048 
C 3117 2048 3718 2583 3718 3187 
C 3718 3791 3130 4352 2291 4352 
L 333 4352 
L 333 4185 
C 774 4185 845 4185 845 3899 
L 845 453 
C 845 166 774 166 333 166 
L 333 0 
C 518 12 858 12 1056 12 
C 1254 12 1594 12 1779 0 
L 1779 166 
C 1338 166 1267 166 1267 453 
L 1267 2048 
z
M 1254 2182 
L 1254 3937 
C 1254 4153 1267 4185 1523 4185 
L 2170 4185 
C 2995 4185 3232 3715 3232 3187 
C 3232 2608 2950 2182 2170 2182 
L 1254 2182 
z
" transform="scale(0.015625)"/>
      <path id="CMR17-64" d="M 1869 4345 
L 1869 4179 
C 2246 4179 2304 4141 2304 3843 
L 2304 2371 
C 2278 2403 2016 2816 1498 2816 
C 845 2816 211 2228 211 1376 
C 211 529 806 -64 1434 -64 
C 1978 -64 2259 361 2291 406 
L 2291 -64 
L 3066 -13 
L 3066 154 
C 2688 154 2630 193 2630 503 
L 2630 4416 
L 1869 4345 
z
M 2291 762 
C 2291 568 2176 393 2029 264 
C 1811 70 1594 38 1472 38 
C 1286 38 621 135 621 1369 
C 621 2636 1363 2713 1530 2713 
C 1824 2713 2061 2545 2208 2313 
C 2291 2177 2291 2157 2291 2041 
L 2291 762 
z
" transform="scale(0.015625)"/>
      <path id="CMR17-75" d="M 1882 2745 
L 1882 2579 
C 2259 2579 2317 2540 2317 2229 
L 2317 1053 
C 2317 510 2029 38 1555 38 
C 1030 38 986 355 986 691 
L 986 2816 
L 211 2745 
L 211 2579 
C 467 2579 640 2579 646 2320 
L 646 1079 
C 646 646 646 368 813 187 
C 896 103 1056 -64 1517 -64 
C 2061 -64 2272 400 2323 536 
L 2330 536 
L 2330 -64 
L 3091 -13 
L 3091 154 
C 2714 154 2656 193 2656 503 
L 2656 2816 
L 1882 2745 
z
" transform="scale(0.015625)"/>
      <path id="CMR17-4d" d="M 1338 4249 
C 1299 4345 1293 4352 1158 4352 
L 339 4352 
L 339 4185 
C 781 4185 851 4185 851 3898 
L 851 624 
C 851 465 851 166 339 166 
L 339 0 
C 486 12 755 12 915 12 
C 1075 12 1344 12 1491 0 
L 1491 166 
C 979 166 979 465 979 624 
L 979 4159 
L 986 4159 
L 2490 102 
C 2515 38 2528 0 2579 0 
C 2630 0 2643 38 2669 102 
L 4186 4191 
L 4192 4191 
L 4192 453 
C 4192 166 4122 166 3680 166 
L 3680 0 
C 3853 12 4198 12 4384 12 
C 4570 12 4922 12 5094 0 
L 5094 166 
C 4653 166 4582 166 4582 453 
L 4582 3898 
C 4582 4185 4653 4185 5094 4185 
L 5094 4352 
L 4282 4352 
C 4147 4352 4141 4345 4102 4249 
L 2720 516 
L 1338 4249 
z
" transform="scale(0.015625)"/>
      <path id="CMR17-6f" d="M 2758 1356 
C 2758 2176 2163 2816 1466 2816 
C 768 2816 173 2176 173 1356 
C 173 550 768 -64 1466 -64 
C 2163 -64 2758 550 2758 1356 
z
M 1466 51 
C 1165 51 909 230 762 480 
C 602 768 582 1126 582 1408 
C 582 1676 595 2009 762 2297 
C 890 2508 1139 2713 1466 2713 
C 1754 2713 1997 2553 2150 2329 
C 2349 2028 2349 1606 2349 1408 
C 2349 1158 2336 774 2163 467 
C 1984 172 1709 51 1466 51 
z
" transform="scale(0.015625)"/>
     </defs>
     <use xlink:href="#CMR17-50" transform="scale(0.996264)"/>
     <use xlink:href="#CMR17-65" transform="translate(59.983847 0)scale(0.996264)"/>
     <use xlink:href="#CMR17-6e" transform="translate(100.469507 0)scale(0.996264)"/>
     <use xlink:href="#CMR17-64" transform="translate(151.364877 0)scale(0.996264)"/>
     <use xlink:href="#CMR17-75" transform="translate(202.260247 0)scale(0.996264)"/>
     <use xlink:href="#CMR17-6c" transform="translate(253.155616 0)scale(0.996264)"/>
     <use xlink:href="#CMR17-75" transform="translate(278.026675 0)scale(0.996264)"/>
     <use xlink:href="#CMR17-6d" transform="translate(328.922045 0)scale(0.996264)"/>
     <use xlink:href="#CMR17-4d" transform="translate(435.917601 0)scale(0.996264)"/>
     <use xlink:href="#CMR17-6f" transform="translate(520.604541 0)scale(0.996264)"/>
     <use xlink:href="#CMR17-74" transform="translate(566.295019 0)scale(0.996264)"/>
     <use xlink:href="#CMR17-69" transform="translate(601.575786 0)scale(0.996264)"/>
     <use xlink:href="#CMR17-6f" transform="translate(626.446845 0)scale(0.996264)"/>
     <use xlink:href="#CMR17-6e" transform="translate(672.137322 0)scale(0.996264)"/>
    </g>
   </g>
   <g id="legend_1">
    <g id="patch_5">
     <path d="M 373.844111 118.578429 
L 507.2 118.578429 
Q 510.4 118.578429 510.4 115.378429 
L 510.4 50.08 
Q 510.4 46.88 507.2 46.88 
L 373.844111 46.88 
Q 370.644111 46.88 370.644111 50.08 
L 370.644111 115.378429 
Q 370.644111 118.578429 373.844111 118.578429 
z
" style="fill: #efddc7; opacity: 0.5; stroke: #575279; stroke-linejoin: miter"/>
    </g>
    <g id="line2d_18">
     <path d="M 377.044111 58.88 
L 393.044111 58.88 
L 409.044111 58.88 
" style="fill: none; stroke: #b4637a; stroke-width: 1.5; stroke-linecap: square"/>
    </g>
    <g id="text_18">
     <!-- Pendulum 1 -->
     <g style="fill: #575279" transform="translate(421.844111 64.48)scale(0.16 -0.16)">
      <use xlink:href="#CMR17-50" transform="scale(0.996264)"/>
      <use xlink:href="#CMR17-65" transform="translate(59.983847 0)scale(0.996264)"/>
      <use xlink:href="#CMR17-6e" transform="translate(100.469507 0)scale(0.996264)"/>
      <use xlink:href="#CMR17-64" transform="translate(151.364877 0)scale(0.996264)"/>
      <use xlink:href="#CMR17-75" transform="translate(202.260247 0)scale(0.996264)"/>
      <use xlink:href="#CMR17-6c" transform="translate(253.155616 0)scale(0.996264)"/>
      <use xlink:href="#CMR17-75" transform="translate(278.026675 0)scale(0.996264)"/>
      <use xlink:href="#CMR17-6d" transform="translate(328.922045 0)scale(0.996264)"/>
      <use xlink:href="#CMR17-31" transform="translate(435.917601 0)scale(0.996264)"/>
     </g>
    </g>
    <g id="line2d_19">
     <path d="M 377.044111 81.179476 
L 393.044111 81.179476 
L 409.044111 81.179476 
" style="fill: none; stroke: #ea9d34; stroke-width: 1.5; stroke-linecap: square"/>
    </g>
    <g id="text_19">
     <!-- Pendulum 2 -->
     <g style="fill: #575279" transform="translate(421.844111 86.779476)scale(0.16 -0.16)">
      <use xlink:href="#CMR17-50" transform="scale(0.996264)"/>
      <use xlink:href="#CMR17-65" transform="translate(59.983847 0)scale(0.996264)"/>
      <use xlink:href="#CMR17-6e" transform="translate(100.469507 0)scale(0.996264)"/>
      <use xlink:href="#CMR17-64" transform="translate(151.364877 0)scale(0.996264)"/>
      <use xlink:href="#CMR17-75" transform="translate(202.260247 0)scale(0.996264)"/>
      <use xlink:href="#CMR17-6c" transform="translate(253.155616 0)scale(0.996264)"/>
      <use xlink:href="#CMR17-75" transform="translate(278.026675 0)scale(0.996264)"/>
      <use xlink:href="#CMR17-6d" transform="translate(328.922045 0)scale(0.996264)"/>
      <use xlink:href="#CMR17-32" transform="translate(435.917601 0)scale(0.996264)"/>
     </g>
    </g>
    <g id="line2d_20">
     <path d="M 377.044111 103.478952 
L 393.044111 103.478952 
L 409.044111 103.478952 
" style="fill: none; stroke: #56949f; stroke-width: 1.5; stroke-linecap: square"/>
    </g>
    <g id="text_20">
     <!-- Pendulum 3 -->
     <g style="fill: #575279" transform="translate(421.844111 109.078952)scale(0.16 -0.16)">
      <defs>
       <path id="CMR17-33" d="M 1414 2176 
C 1984 2176 2234 1673 2234 1094 
C 2234 322 1824 25 1453 25 
C 1114 25 563 193 390 691 
C 422 678 454 678 486 678 
C 640 678 755 780 755 947 
C 755 1132 614 1216 486 1216 
C 378 1216 211 1164 211 927 
C 211 335 787 -128 1466 -128 
C 2176 -128 2720 432 2720 1087 
C 2720 1718 2208 2176 1600 2246 
C 2086 2347 2554 2776 2554 3353 
C 2554 3856 2048 4224 1472 4224 
C 890 4224 378 3862 378 3347 
C 378 3123 544 3084 627 3084 
C 762 3084 877 3167 877 3334 
C 877 3500 762 3584 627 3584 
C 602 3584 570 3584 544 3571 
C 730 3999 1235 4076 1459 4076 
C 1683 4076 2106 3966 2106 3347 
C 2106 3167 2080 2851 1862 2574 
C 1670 2329 1453 2316 1242 2297 
C 1210 2297 1062 2284 1037 2284 
C 992 2278 966 2272 966 2227 
C 966 2182 973 2176 1101 2176 
L 1414 2176 
z
" transform="scale(0.015625)"/>
      </defs>
      <use xlink:href="#CMR17-50" transform="scale(0.996264)"/>
      <use xlink:href="#CMR17-65" transform="translate(59.983847 0)scale(0.996264)"/>
      <use xlink:href="#CMR17-6e" transform="translate(100.469507 0)scale(0.996264)"/>
      <use xlink:href="#CMR17-64" transform="translate(151.364877 0)scale(0.996264)"/>
      <use xlink:href="#CMR17-75" transform="translate(202.260247 0)scale(0.996264)"/>
      <use xlink:href="#CMR17-6c" transform="translate(253.155616 0)scale(0.996264)"/>
      <use xlink:href="#CMR17-75" transform="translate(278.026675 0)scale(0.996264)"/>
      <use xlink:href="#CMR17-6d" transform="translate(328.922045 0)scale(0.996264)"/>
      <use xlink:href="#CMR17-33" transform="translate(435.917601 0)scale(0.996264)"/>
     </g>
    </g>
   </g>
  </g>
 </g>
 <defs>
  <clipPath id="p3a358c2764">
   <rect x="72" y="38.88" width="446.4" height="244.62"/>
  </clipPath>
 </defs>
</svg>
